<svg width="100" height="33" viewBox="0 0 100 33" fill="none" xmlns="http://www.w3.org/2000/svg">
<g clip-path="url(#clip0)">
<path d="M9.59059 17.3269H7.01312C7.01312 18.2262 6.95318 18.8857 6.77335 19.2454C6.29382 20.3846 5.27482 20.9841 3.83624 20.9841C3.35671 20.9841 2.93712 20.8642 2.63741 20.6244C2.27776 20.3846 2.09794 20.0848 2.09794 19.785C2.09794 19.4852 2.27776 19.0656 2.63741 18.6459C2.87718 18.8857 3.17688 19.0056 3.47659 19.0056C3.65641 19.0056 3.83624 18.9456 3.95612 18.8857C4.13594 18.7658 4.19588 18.6459 4.31576 18.5859C4.37571 18.466 4.43565 18.3461 4.49559 18.1662C4.55553 17.9864 4.55553 17.8665 4.61547 17.7466C4.61547 17.6266 4.61547 17.5067 4.67541 17.3269H4.37571C2.51753 17.2669 1.25876 16.7273 0.479529 15.5882C0.179824 15.0486 0 14.4491 0 13.7896C0 13.1301 0.119882 12.4706 0.419588 11.811C0.719294 11.1515 1.07894 10.612 1.55847 10.2522C2.57747 9.41286 3.95612 9.05314 5.69441 9.11309C6.29382 9.11309 6.83329 9.29296 7.31282 9.59273C7.133 9.8925 7.01312 10.4321 7.01312 11.2715C7.01312 11.5113 7.01312 12.1108 7.01312 13.0101C7.01312 13.25 7.01312 13.4898 7.01312 13.7296C7.01312 14.2692 7.01312 14.7488 7.01312 15.1685H9.59059V17.3269ZM2.21782 13.7896C2.21782 14.2692 2.39765 14.6889 2.81724 14.9287C3.23682 15.1685 3.83624 15.2884 4.61547 15.2884C4.61547 14.8687 4.61547 14.509 4.61547 14.1493C4.61547 13.7896 4.61547 13.4298 4.61547 13.19C4.61547 12.8902 4.61547 12.6504 4.61547 12.4106C4.61547 12.1708 4.61547 11.931 4.61547 11.7511C4.61547 11.5712 4.61547 11.4513 4.61547 11.3314C4.61547 11.2115 4.61547 11.0916 4.61547 11.0316V10.9117C4.01606 11.0316 3.47659 11.4513 2.99706 12.0509C2.45759 12.6504 2.21782 13.25 2.21782 13.7896Z" fill="#007893"/>
<path d="M9.17098 15.2885H10.9093C11.209 15.2885 11.3888 15.1686 11.5087 14.9887C11.6286 14.8088 11.6885 14.5091 11.6885 14.0894C11.6885 13.9695 11.6885 13.31 11.6286 12.1109C11.5686 10.9118 11.5686 10.3722 11.5686 10.3122C11.5686 9.95251 11.6885 9.65273 11.8683 9.47287C12.0482 9.293 12.3479 9.1731 12.7075 9.1731C13.3069 9.1731 13.8464 9.35296 14.3259 9.71269C14.1461 10.0125 14.0262 10.612 14.0262 11.5713V13.4898C14.0262 14.2093 14.0262 14.8088 14.0262 15.2285C14.0262 16.6075 13.3669 17.3269 12.1081 17.3269H9.0511V15.2885H9.17098ZM9.11104 18.2862C9.41075 18.2862 9.65051 18.4061 9.89028 18.586C10.0701 18.7658 10.19 19.0057 10.19 19.3054C10.19 19.6652 10.0701 19.905 9.83034 20.1448C9.59057 20.3846 9.29087 20.5045 8.93122 20.5045C8.63151 20.5045 8.39175 20.3846 8.21193 20.2048C8.0321 20.0249 7.91222 19.7851 7.91222 19.4853C7.91222 19.1855 8.0321 18.8857 8.27187 18.6459C8.51163 18.4061 8.81134 18.2862 9.11104 18.2862ZM11.9882 18.2862C12.2879 18.2862 12.5277 18.4061 12.7675 18.586C12.9473 18.7658 13.0672 19.0057 13.0672 19.3054C13.0672 19.6652 12.9473 19.905 12.7075 20.1448C12.4677 20.3846 12.168 20.5045 11.8084 20.5045C11.5087 20.5045 11.2689 20.3846 11.0891 20.2048C10.8493 20.0249 10.7894 19.7851 10.7894 19.4853C10.7894 19.1855 10.9093 18.8857 11.149 18.6459C11.3888 18.4061 11.6286 18.2862 11.9882 18.2862Z" fill="#007893"/>
<path d="M21.8786 10.2522C22.9575 11.0916 23.437 12.1108 23.437 13.19V14.7488C23.437 15.4683 23.2572 16.1278 22.9575 16.6074C22.5979 17.0871 22.1783 17.3269 21.5789 17.3269H16.7836C15.8844 17.2669 15.4649 16.9672 15.4649 16.3676C15.4649 15.888 15.6447 15.4083 15.9444 14.9287C16.1842 15.1685 16.4839 15.2884 16.7836 15.2884H20.44C20.7397 15.2884 20.9195 15.2285 21.0394 15.0486C21.1593 14.8687 21.2192 14.569 21.2192 14.1493C21.2192 13.9694 21.2192 13.7896 21.2192 13.7296C21.2192 13.1301 20.9195 12.6504 20.38 12.2307C19.8406 11.8111 19.2412 11.6312 18.5219 11.6312C17.9824 11.6312 17.5628 11.7511 17.0833 11.931C16.6637 11.2115 16.4839 10.612 16.5438 10.1923C16.6037 9.83255 16.7836 9.59274 17.0233 9.47283C17.323 9.35292 17.7426 9.23301 18.2821 9.23301C19.7207 9.17305 20.9195 9.53278 21.8786 10.2522Z" fill="#007893"/>
<path d="M27.6329 6.53501C27.6329 6.95469 27.6329 8.51351 27.6928 11.3314L27.7527 16.1278C27.7527 16.4875 27.6329 16.7873 27.453 16.9671C27.2732 17.147 26.9735 17.2669 26.6139 17.2669C26.0145 17.2669 25.475 17.087 24.9955 16.7273C25.1753 16.4275 25.2952 15.828 25.2952 14.8687L25.2352 10.0723C25.1753 7.25446 25.1753 5.63569 25.1753 5.27596C25.1753 4.91623 25.2952 4.61646 25.475 4.4366C25.6548 4.25673 25.9545 4.19678 26.3142 4.19678C26.9136 4.19678 27.453 4.37664 27.9326 4.73637C27.6928 5.03614 27.6329 5.63569 27.6329 6.53501Z" fill="#007893"/>
<path d="M31.589 11.6311C31.589 13.9094 31.589 15.2284 31.589 15.6481C31.589 16.1277 31.589 16.5474 31.5291 16.8472C31.5291 17.147 31.4691 17.4467 31.4691 17.8065C31.4691 18.1662 31.4092 18.466 31.4092 18.6458C31.3492 18.8257 31.3492 19.0655 31.2893 19.3053C31.2294 19.5451 31.1694 19.725 31.1095 19.8449C31.0495 19.9648 30.9297 20.0847 30.8098 20.2646C30.6899 20.3845 30.57 20.5044 30.3902 20.5644C30.2703 20.6243 30.0905 20.6843 29.8507 20.7442C29.6709 20.8042 29.4311 20.8641 29.1914 20.8641C28.9516 20.8641 28.7118 20.8641 28.4121 20.8641C27.9326 20.8641 27.513 20.7442 27.2133 20.5044C26.8537 20.2646 26.6738 19.9648 26.6738 19.6651C26.6738 19.3653 26.8537 18.9456 27.1534 18.5259C27.3931 18.7657 27.6928 18.8856 27.9925 18.8856C28.4121 18.8856 28.7118 18.7058 28.8917 18.346C29.0715 17.9863 29.1914 17.4467 29.1914 16.6673C29.1914 16.4275 29.1914 16.0678 29.1914 15.5881V14.8687C29.1914 14.449 29.1914 13.6696 29.1314 12.5305C29.0715 11.0915 29.0715 10.3721 29.0715 10.3721C29.0715 10.0124 29.1914 9.71258 29.3712 9.47277C29.6109 9.23295 29.8507 9.11304 30.2104 9.11304C30.8697 9.11304 31.4092 9.2929 31.8288 9.71258C31.7089 10.1323 31.589 10.7318 31.589 11.6311Z" fill="#007893"/>
<path d="M42.0788 17.3268H40.1606C39.7411 17.3268 39.4413 17.2668 39.2016 17.087C39.2016 17.4467 39.2016 17.6865 39.2016 17.9863C39.2016 18.2261 39.1416 18.5259 39.0817 18.7657C39.0218 19.0655 38.9618 19.3053 38.9019 19.4852C38.8419 19.665 38.6621 19.9048 38.5422 20.0847C38.3624 20.2646 38.1826 20.4444 38.0028 20.5643C37.8229 20.6842 37.5232 20.8042 37.1636 20.8641C36.8639 20.9241 36.5042 20.984 36.0846 20.984C35.6051 20.984 35.1855 20.8641 34.8858 20.6243C34.5262 20.3845 34.3463 20.0847 34.3463 19.7849C34.3463 19.4852 34.5262 19.0655 34.8858 18.6458C35.1256 18.8856 35.4253 19.0055 35.725 19.0055C36.1446 19.0055 36.4443 18.8257 36.6241 18.4659C36.8039 18.1062 36.9238 17.5666 36.9238 16.7872C36.9238 16.5474 36.9238 16.1876 36.9238 15.708C36.9238 15.6481 36.9238 15.4082 36.9238 14.9886C36.9238 14.7487 36.9238 13.9693 36.8639 12.6503C36.8639 11.5112 36.8039 10.7917 36.8039 10.492C36.8039 10.1322 36.9238 9.83246 37.1036 9.59264C37.3434 9.35282 37.5832 9.23291 37.9428 9.23291C38.6022 9.23291 39.1416 9.41277 39.5612 9.83246C39.3814 10.1322 39.2615 10.7318 39.2615 11.6911C39.2615 13.3098 39.2615 14.5089 39.2615 15.2883H42.0788V17.3268Z" fill="#007893"/>
<path d="M49.8711 17.3269H47.1737C46.6343 17.3269 46.2147 17.1471 45.9749 16.7873C45.6153 17.1471 45.1358 17.3269 44.5363 17.3269H41.6592V15.2885H43.2176C43.5173 15.2885 43.6972 15.1686 43.817 14.9887C43.9369 14.8088 43.9969 14.5091 43.9969 14.0894C43.9969 13.9695 43.9969 13.31 43.9369 12.1109C43.9369 11.1516 43.877 10.5521 43.877 10.3122C43.877 9.95251 43.9969 9.65273 44.1767 9.47287C44.3565 9.293 44.6562 9.1731 45.0159 9.1731C45.6153 9.1731 46.1548 9.35296 46.6343 9.71269C46.4545 10.0125 46.3346 10.612 46.3346 11.5713V14.2093C46.3346 14.5091 46.4545 14.8088 46.5743 14.9887C46.7542 15.1686 46.874 15.2885 47.0539 15.2885H49.7512V17.3269H49.8711ZM41.1197 18.2862C41.4194 18.2862 41.6592 18.4061 41.8989 18.586C42.0788 18.7658 42.1986 19.0057 42.1986 19.3054C42.1986 19.6652 42.0788 19.905 41.839 20.1448C41.5992 20.3846 41.2995 20.5045 40.9399 20.5045C40.6402 20.5045 40.4004 20.3846 40.2206 20.2048C40.0408 20.0249 39.9209 19.7851 39.9209 19.4853C39.9209 19.1855 40.0407 18.8857 40.2805 18.6459C40.4603 18.4061 40.76 18.2862 41.1197 18.2862ZM43.9369 18.2862C44.2366 18.2862 44.5363 18.4061 44.7162 18.586C44.896 18.7658 45.0159 19.0057 45.0159 19.3054C45.0159 19.6652 44.896 19.905 44.6562 20.1448C44.4165 20.3846 44.1167 20.5045 43.7571 20.5045C43.4574 20.5045 43.2176 20.3846 43.0378 20.2048C42.858 20.0249 42.7381 19.7851 42.7381 19.4853C42.7381 19.1855 42.858 18.8857 43.0978 18.6459C43.3375 18.4061 43.6372 18.2862 43.9369 18.2862Z" fill="#007893"/>
<path d="M52.928 9.17307C53.5274 9.17307 54.0669 9.35293 54.5464 9.71266C54.3666 10.0124 54.2467 10.612 54.2467 11.5713V13.4898C54.2467 14.2093 54.2467 14.8088 54.2467 15.2285C54.2467 16.6074 53.5874 17.3269 52.3286 17.3269H49.4514V15.2884H51.0099C51.3096 15.2884 51.4894 15.1685 51.6093 14.9887C51.7292 14.8088 51.7891 14.509 51.7891 14.0893C51.7891 13.9694 51.7891 13.3099 51.7292 12.1108C51.7292 11.1516 51.6692 10.552 51.6692 10.3122C51.6692 9.95248 51.7891 9.6527 51.9689 9.47284C52.3286 9.29297 52.5684 9.17307 52.928 9.17307ZM49.2117 11.0916C48.9119 11.0916 48.6722 10.9717 48.4924 10.7918C48.3125 10.612 48.1927 10.3722 48.1927 10.0724C48.1927 9.77261 48.3125 9.47284 48.5523 9.23302C48.7921 8.9932 49.0918 8.87329 49.3915 8.87329C49.6912 8.87329 49.9309 8.9932 50.1707 9.17307C50.4105 9.35293 50.4704 9.59275 50.4704 9.89252C50.4704 10.2522 50.3505 10.4921 50.1108 10.7319C49.871 10.9717 49.5713 11.0916 49.2117 11.0916ZM49.2117 7.85406C48.9119 7.85406 48.6722 7.73415 48.4924 7.55429C48.3125 7.37443 48.1927 7.13461 48.1927 6.83483C48.1927 6.53506 48.3125 6.23529 48.5523 5.99547C48.7921 5.75565 49.0918 5.63574 49.3915 5.63574C49.6912 5.63574 49.9309 5.75565 50.1707 5.93552C50.3505 6.11538 50.4704 6.3552 50.4704 6.65497C50.4704 7.0147 50.3505 7.25452 50.1108 7.49434C49.871 7.79411 49.5713 7.85406 49.2117 7.85406ZM49.2117 14.0893C48.9119 14.0893 48.6722 13.9694 48.4924 13.7896C48.3125 13.6097 48.1927 13.3699 48.1927 13.0701C48.1927 12.7703 48.3125 12.4706 48.5523 12.2308C48.7921 11.9909 49.0918 11.871 49.3915 11.871C49.6912 11.871 49.9309 11.9909 50.1707 12.1708C50.3505 12.3507 50.4704 12.5905 50.4704 12.8903C50.4704 13.25 50.3505 13.4898 50.1108 13.7296C49.871 13.9694 49.5713 14.0893 49.2117 14.0893Z" fill="#007893"/>
<path d="M57.7833 2.27828H58.8622C59.1619 2.27828 59.3417 2.39819 59.3417 2.638C59.3417 2.93778 59.2818 3.11764 59.1619 3.2975C59.102 3.23755 58.9821 3.1776 58.8622 3.1776H55.8651C55.7452 3.1776 55.6254 3.11764 55.5055 2.99773C55.4455 2.87782 55.3856 2.75791 55.3856 2.638C55.3856 2.45814 55.4455 2.27828 55.5654 2.09841C55.6254 2.15837 55.7452 2.21832 55.8651 2.21832H56.4046C56.2248 1.91855 56.1049 1.61877 56.1049 1.319C56.1049 0.899319 56.2847 0.539592 56.5844 0.299773C56.8841 0.119909 57.3037 0 57.8432 0C58.3227 0 58.6824 0.119909 58.9221 0.359728C58.9821 0.419682 59.042 0.539592 59.102 0.719456C59.1619 0.899319 59.102 1.01923 59.042 1.13914C58.9821 1.25905 58.8622 1.37896 58.6224 1.37896C58.3827 1.37896 58.2028 1.319 58.023 1.25905C58.083 1.25905 58.1429 1.19909 58.1429 1.13914C58.2028 1.07918 58.2028 0.959274 58.1429 0.839365C58.023 0.77941 57.9031 0.77941 57.7833 0.77941C57.5435 0.77941 57.3637 0.839365 57.2438 0.959274C57.1239 1.07918 57.064 1.25905 57.064 1.49887C57.1239 1.9785 57.3637 2.21832 57.7833 2.27828ZM57.1838 4.19682C57.7833 4.19682 58.3227 4.37669 58.8022 4.73642C58.6224 5.03619 58.5025 5.63573 58.5025 6.59501L58.5625 11.3914C58.6224 14.2092 58.6224 15.828 58.6224 16.1877C58.6224 16.5475 58.5025 16.8472 58.3227 17.0271C58.1429 17.207 57.8432 17.3269 57.4835 17.3269C56.8841 17.3269 56.3447 17.147 55.8651 16.7873C56.045 16.4875 56.1648 15.888 56.1648 14.9287L56.1049 10.1323C56.045 7.31446 56.045 5.69569 56.045 5.33596C56.045 4.97623 56.1648 4.67646 56.3447 4.4966C56.5245 4.31673 56.8242 4.19682 57.1838 4.19682Z" fill="#007893"/>
<path d="M95.5462 8.51361H75.346L85.7159 1.31906C86.0755 1.07924 86.1354 0.599602 85.8957 0.299829C85.6559 -0.0598986 85.1764 -0.119853 84.8767 0.119965L72.7086 8.51361H70.251C68.1531 8.51361 66.4747 10.1923 66.4747 12.2908V29.138C66.4747 31.2364 68.1531 32.9151 70.251 32.9151H95.5462C97.6441 32.9151 99.3225 31.2364 99.3225 29.138V12.2908C99.2626 10.2523 97.5842 8.51361 95.5462 8.51361ZM88.8328 26.7398C87.2144 28.3586 85.0565 29.198 82.8986 29.198C80.7407 29.198 78.5829 28.3586 76.9644 26.7398C73.6677 23.4423 73.6677 18.1663 76.9644 14.8688C80.2612 11.5713 85.536 11.5713 88.8328 14.8688C90.3913 16.4276 91.2904 18.586 91.2904 20.8043C91.2904 23.0226 90.3913 25.181 88.8328 26.7398Z" fill="#007893"/>
<path d="M89.4921 18.466C88.9527 16.9072 87.8138 15.5282 86.3752 14.6889C85.3562 14.0893 84.1574 13.7896 83.0185 13.7896C82.9585 13.7896 82.8986 13.7896 82.8387 13.7896C82.7787 13.7896 82.7188 13.7896 82.6588 13.7896C81.46 13.7896 80.3211 14.1493 79.3021 14.6889C77.8636 15.5282 76.7247 16.8472 76.1852 18.466C75.9454 19.2454 75.7656 20.0248 75.7656 20.8042C75.7656 21.5837 75.8855 22.423 76.1852 23.1425C76.7247 24.7013 77.8636 26.0803 79.3021 26.9196C80.3811 27.5192 81.5799 27.8789 82.8387 27.8789C84.0974 27.8789 85.2963 27.5791 86.3752 26.9196C87.8138 26.0803 88.9527 24.7613 89.4921 23.1425C89.7319 22.3631 89.9117 21.5837 89.9117 20.8042C89.9117 19.9649 89.7918 19.1855 89.4921 18.466ZM86.7348 22.1232V19.4852C86.7348 19.3653 86.7948 19.3054 86.9147 19.3054H88.2933C88.3533 19.3054 88.4731 19.3653 88.4731 19.4253C88.593 19.845 88.653 20.3246 88.653 20.8042C88.653 21.2839 88.593 21.7036 88.4731 22.1832C88.4731 22.2432 88.3533 22.3031 88.2933 22.3031H86.9147C86.7948 22.3031 86.7348 22.2432 86.7348 22.1232ZM85.2963 26.0203C84.7568 26.2601 84.2173 26.44 83.6778 26.4999C83.558 26.4999 83.498 26.44 83.498 26.3201V23.742C83.498 23.6221 83.558 23.5622 83.6778 23.5622H85.2363C85.3562 23.5622 85.4161 23.6221 85.4161 23.742V25.8404C85.4161 25.9004 85.3562 25.9603 85.2963 26.0203ZM80.501 23.5622H82.0594C82.1793 23.5622 82.2393 23.6221 82.2393 23.742V26.3201C82.2393 26.44 82.1194 26.4999 82.0594 26.4999C81.52 26.44 80.9805 26.2601 80.441 26.0203C80.3811 26.0203 80.3211 25.9004 80.3211 25.8404V23.742C80.3211 23.6821 80.3811 23.5622 80.501 23.5622ZM77.444 22.3031C77.384 22.3031 77.2641 22.2432 77.2641 22.1832C77.1443 21.7635 77.0843 21.2839 77.0843 20.8042C77.0843 20.3246 77.1443 19.9049 77.2641 19.4253C77.2641 19.3653 77.384 19.3054 77.444 19.3054H78.8226C78.9425 19.3054 79.0024 19.3653 79.0024 19.4852V22.1232C79.0024 22.2432 78.9425 22.3031 78.8226 22.3031H77.444ZM80.501 19.3054H82.0594C82.1793 19.3054 82.2393 19.3653 82.2393 19.4852V22.1232C82.2393 22.2432 82.1793 22.3031 82.0594 22.3031H80.501C80.3811 22.3031 80.3211 22.2432 80.3211 22.1232V19.4852C80.3211 19.3653 80.3811 19.3054 80.501 19.3054ZM80.3811 15.5882C80.9206 15.3484 81.46 15.1685 81.9995 15.1086C82.1194 15.1086 82.1793 15.1685 82.1793 15.2884V17.8665C82.1793 17.9864 82.1194 18.0463 81.9995 18.0463H80.441C80.3211 18.0463 80.2612 17.9864 80.2612 17.8665V15.7681C80.3211 15.6481 80.3211 15.5882 80.3811 15.5882ZM85.2363 18.0463H83.6778C83.558 18.0463 83.498 17.9864 83.498 17.8665V15.2884C83.498 15.1685 83.6179 15.1086 83.6778 15.1086C84.2173 15.1685 84.7568 15.3484 85.2963 15.5882C85.3562 15.5882 85.4161 15.7081 85.4161 15.7681V17.8665C85.4161 17.9264 85.3562 18.0463 85.2363 18.0463ZM83.498 22.1232V19.4852C83.498 19.3653 83.558 19.3054 83.6778 19.3054H85.2363C85.3562 19.3054 85.4161 19.3653 85.4161 19.4852V22.1232C85.4161 22.2432 85.3562 22.3031 85.2363 22.3031H83.6778C83.558 22.3031 83.498 22.2432 83.498 22.1232ZM87.634 18.0463H86.9147C86.7948 18.0463 86.7348 17.9864 86.7348 17.8665V16.9671C86.7348 16.7873 86.9147 16.7273 87.0345 16.8472C87.3342 17.147 87.574 17.4468 87.7538 17.8065C87.8138 17.8665 87.7538 18.0463 87.634 18.0463ZM79.0024 16.9072V17.8065C79.0024 17.9264 78.9425 17.9864 78.8226 17.9864H78.1033C77.9834 17.9864 77.8635 17.8065 77.9235 17.6866C78.1633 17.3269 78.403 17.0271 78.6428 16.7273C78.8226 16.6674 79.0024 16.7873 79.0024 16.9072ZM78.1033 23.5622H78.8226C78.9425 23.5622 79.0024 23.6221 79.0024 23.742V24.6413C79.0024 24.8212 78.8226 24.8812 78.7027 24.7613C78.403 24.4615 78.1633 24.1617 77.9834 23.802C77.8636 23.742 77.9834 23.5622 78.1033 23.5622ZM86.7348 24.7013V23.802C86.7348 23.6821 86.7948 23.6221 86.9147 23.6221H87.634C87.7538 23.6221 87.8737 23.802 87.8138 23.9219C87.574 24.2816 87.3343 24.5814 87.0945 24.8812C86.9147 24.9411 86.7348 24.8212 86.7348 24.7013Z" fill="#007893"/>
<path d="M0 32.0756L2.33771 24.7012H4.19588L6.53359 32.0756H4.97512L4.49559 30.5168H1.97806L1.49853 32.0756H0ZM2.33771 29.1978H4.13594L3.23682 25.9602L2.33771 29.1978Z" fill="#007893"/>
<path d="M9.11106 32.0758C8.69147 32.0758 8.39176 32.0158 8.09206 31.8959C7.85229 31.776 7.67247 31.5962 7.55258 31.2964C7.4327 30.9966 7.37276 30.6369 7.4327 30.1572L7.49264 27.879H6.59352V26.9797L7.49264 26.7398L7.67247 25.241H8.81135V26.7398H10.0701V27.9389H8.81135V30.2172C8.81135 30.3371 8.81135 30.457 8.87129 30.5769C8.87129 30.6968 8.93123 30.7568 8.99117 30.8168C9.05112 30.8767 9.11106 30.9367 9.171 30.9367C9.23094 30.9367 9.29088 30.9966 9.35082 30.9966L10.0102 31.0566V32.1358H9.11106V32.0758Z" fill="#007893"/>
<path d="M10.9093 32.0757V24.4614H12.4078V27.2793C12.5876 27.0994 12.8274 26.9795 13.187 26.8596C13.5467 26.7397 13.7865 26.6797 14.1461 26.6797C14.5657 26.6797 14.8654 26.7397 15.1052 26.9196C15.3449 27.0994 15.5247 27.2793 15.6446 27.5791C15.7645 27.8788 15.8245 28.1786 15.8245 28.5983V32.1356H14.3259V28.7782C14.3259 28.5983 14.266 28.4784 14.206 28.3585C14.1461 28.2386 14.0262 28.1786 13.9663 28.1187C13.8464 28.0587 13.7265 28.0587 13.5467 28.0587C13.4268 28.0587 13.247 28.0587 13.1271 28.1187C13.0072 28.1786 12.8873 28.1786 12.7674 28.2386C12.6476 28.2985 12.5277 28.3585 12.4078 28.4184V32.1356H10.9093V32.0757Z" fill="#007893"/>
<path d="M19.1213 32.1357C18.5219 32.1357 18.0423 32.0757 17.6827 31.8959C17.323 31.716 17.0833 31.4762 16.9034 31.0565C16.7236 30.6368 16.6637 30.0972 16.6637 29.3778C16.6637 28.6583 16.7236 28.0588 16.9034 27.6991C17.0233 27.2794 17.323 27.0396 17.6227 26.8597C17.9824 26.6798 18.4619 26.6199 19.0613 26.6199C19.6008 26.6199 20.0204 26.6798 20.3201 26.7997C20.6198 26.9196 20.8596 27.0995 21.0394 27.3393C21.1593 27.5791 21.2792 27.9988 21.2792 28.4785C21.2792 28.8382 21.2192 29.138 21.0394 29.3178C20.9195 29.5576 20.6797 29.6776 20.44 29.7975C20.2002 29.8574 19.9005 29.9174 19.5409 29.9174H18.1622C18.1622 30.2172 18.2221 30.397 18.2821 30.5769C18.342 30.7567 18.4619 30.8766 18.6417 30.9366C18.8216 30.9966 19.1213 31.0565 19.4809 31.0565H21.0394V31.9558C20.7996 32.0158 20.4999 32.0757 20.2002 32.1357C19.9604 32.1357 19.5409 32.1357 19.1213 32.1357ZM18.1622 29.078H19.361C19.5409 29.078 19.7207 29.0181 19.7806 28.9581C19.9005 28.8981 19.9005 28.7183 19.9005 28.5384C19.9005 28.3586 19.9005 28.1787 19.8406 28.0588C19.7806 27.9389 19.6607 27.8789 19.5409 27.819C19.421 27.759 19.2411 27.759 19.0014 27.759C18.7616 27.759 18.5818 27.819 18.4619 27.8789C18.342 27.9389 18.2221 28.1187 18.1622 28.2986C18.2221 28.4185 18.1622 28.7183 18.1622 29.078Z" fill="#007893"/>
<path d="M24.516 32.1357C23.9166 32.1357 23.437 32.0757 23.0774 31.8959C22.7177 31.716 22.478 31.4762 22.2981 31.0565C22.1183 30.6368 22.0584 30.0972 22.0584 29.3778C22.0584 28.6583 22.1183 28.0588 22.2981 27.6991C22.418 27.2794 22.7177 27.0396 23.0174 26.8597C23.3771 26.6798 23.8566 26.6199 24.456 26.6199C24.9955 26.6199 25.4151 26.6798 25.7148 26.7997C26.0145 26.9196 26.2543 27.0995 26.4341 27.3393C26.554 27.5791 26.6738 27.9988 26.6738 28.4785C26.6738 28.8382 26.6139 29.138 26.4341 29.3178C26.2543 29.4977 26.0744 29.6776 25.8347 29.7975C25.5949 29.8574 25.2952 29.9174 24.9356 29.9174H23.5569C23.5569 30.2172 23.6169 30.397 23.6768 30.5769C23.7367 30.7567 23.8566 30.8766 24.0364 30.9366C24.2163 30.9966 24.516 31.0565 24.8756 31.0565H26.4341V31.9558C26.1943 32.0158 25.8946 32.0757 25.5949 32.1357C25.2952 32.1357 24.9356 32.1357 24.516 32.1357ZM23.5569 29.078H24.7557C24.9356 29.078 25.1154 29.0181 25.1753 28.9581C25.2952 28.8981 25.2952 28.7183 25.2952 28.5384C25.2952 28.3586 25.2952 28.1787 25.2353 28.0588C25.1753 27.9389 25.0554 27.8789 24.9356 27.819C24.8157 27.759 24.6359 27.759 24.3961 27.759C24.1563 27.759 23.9765 27.819 23.8566 27.8789C23.7367 27.9389 23.6169 28.1187 23.5569 28.2986C23.5569 28.4185 23.5569 28.7183 23.5569 29.078Z" fill="#007893"/>
<path d="M27.6329 32.0757V26.6798H28.7718L29.1315 27.5192C29.3113 27.2794 29.551 27.0396 29.7908 26.8597C30.0306 26.6798 30.3303 26.6199 30.63 26.6199C30.6899 26.6199 30.7499 26.6199 30.8698 26.6199C30.9297 26.6199 30.9896 26.6199 31.1095 26.6798V28.1787C30.9896 28.1787 30.9297 28.1787 30.8098 28.1187C30.6899 28.1187 30.57 28.1187 30.5101 28.1187C30.3303 28.1187 30.1505 28.1187 29.9706 28.1787C29.7908 28.2386 29.6709 28.2986 29.551 28.3586C29.4312 28.4185 29.3113 28.5384 29.1914 28.6583V32.0158H27.6329V32.0757Z" fill="#007893"/>
<path d="M34.4662 32.0756V24.7012H37.5232C37.8229 24.7012 38.0626 24.7611 38.3624 24.8211C38.6021 24.881 38.8419 25.0009 39.0217 25.1808C39.2015 25.3607 39.3814 25.6005 39.5012 25.9003C39.6211 26.2 39.6811 26.6197 39.6811 27.0994C39.6811 27.4591 39.6211 27.7589 39.5612 27.9987C39.5012 28.2385 39.3814 28.4184 39.3214 28.5982C39.2015 28.7781 39.0816 28.898 38.9618 28.9579C38.8419 29.0779 38.6621 29.1378 38.5422 29.1978L39.9208 32.1955H38.3624L37.1635 29.3776C37.1036 29.3776 36.9837 29.3776 36.8638 29.3776C36.7439 29.3776 36.684 29.3776 36.5641 29.3776C36.4442 29.3776 36.3244 29.3776 36.2644 29.3776C36.2045 29.3776 36.0846 29.3776 35.9647 29.3776V32.1355H34.4662V32.0756ZM35.9647 28.1785H37.2834C37.4033 28.1785 37.5232 28.1785 37.6431 28.1186C37.7629 28.0586 37.8229 27.9987 37.9428 27.9387C38.0027 27.8788 38.0626 27.7589 38.1226 27.579C38.1825 27.4591 38.1825 27.2792 38.1825 27.0394C38.1825 26.8595 38.1825 26.6797 38.1226 26.4998C38.0626 26.3799 38.0027 26.26 37.9428 26.2C37.8828 26.1401 37.7629 26.0801 37.6431 26.0202C37.5232 25.9602 37.4033 25.9602 37.2834 25.9602H35.9647V28.1785Z" fill="#007893"/>
<path d="M41.7191 32.1356C41.2995 32.1356 40.9998 32.0156 40.7001 31.7758C40.4603 31.536 40.3404 31.1763 40.3404 30.7566V30.277C40.3404 29.8573 40.4603 29.5575 40.76 29.2577C41.0597 29.0179 41.4793 28.8381 42.0787 28.8381H43.4574V28.4783C43.4574 28.2985 43.3974 28.1786 43.3974 28.0586C43.3375 27.9387 43.2176 27.8788 43.0378 27.8188C42.858 27.7589 42.6182 27.7589 42.3185 27.7589H40.7001V26.9795C40.9398 26.9195 41.2396 26.7996 41.5992 26.7396C41.9588 26.6797 42.3784 26.6797 42.858 26.6797C43.2776 26.6797 43.6971 26.7396 43.9968 26.8596C44.2966 26.9795 44.5363 27.1593 44.7161 27.3991C44.896 27.639 44.9559 27.9987 44.9559 28.4783V32.1356H43.7571L43.5173 31.536C43.4574 31.596 43.3974 31.6559 43.2776 31.7159C43.1577 31.7758 43.0378 31.8358 42.858 31.8957C42.6781 31.9557 42.4983 32.0156 42.3185 32.0756C42.1387 32.1356 41.9588 32.1356 41.7191 32.1356ZM42.4983 31.1163C42.5583 31.1163 42.6182 31.1163 42.7381 31.1163C42.798 31.1163 42.9179 31.0564 42.9778 31.0564C43.0378 31.0564 43.1577 30.9964 43.2176 30.9964C43.2776 30.9964 43.3375 30.9365 43.3974 30.9365C43.4574 30.9365 43.4574 30.8765 43.5173 30.8765V29.6175L42.6182 29.6774C42.3784 29.6774 42.1387 29.7374 42.0188 29.8573C41.8989 29.9772 41.839 30.0971 41.839 30.3369V30.5767C41.839 30.6966 41.839 30.8166 41.8989 30.9365C41.9588 30.9964 42.0188 31.0564 42.1387 31.1163C42.2586 31.1163 42.3784 31.1163 42.4983 31.1163Z" fill="#007893"/>
<path d="M47.8331 32.1356C47.4135 32.1356 47.0538 32.0757 46.7541 31.8958C46.4544 31.7159 46.2746 31.4162 46.0948 31.0564C45.9749 30.6368 45.855 30.1571 45.855 29.4976C45.855 28.8381 45.9149 28.2985 46.0348 27.8788C46.1547 27.4592 46.3945 27.1594 46.6342 26.9795C46.9339 26.7997 47.3535 26.6797 47.8331 26.6797C48.0728 26.6797 48.3126 26.6797 48.5524 26.7397C48.7921 26.7997 49.0319 26.8596 49.2117 26.9196V24.4614H50.7102V32.0757H49.4515L49.2117 31.5361C49.0918 31.656 48.9719 31.7159 48.7921 31.8358C48.6123 31.8958 48.4325 32.0157 48.2526 32.0157C48.1927 32.1356 48.0129 32.1356 47.8331 32.1356ZM48.3725 30.9365C48.5523 30.9365 48.7322 30.8766 48.912 30.8166C49.0918 30.7567 49.2117 30.6967 49.3316 30.6368V27.9388C49.2117 27.8788 49.0319 27.8189 48.912 27.8189C48.7921 27.7589 48.6123 27.7589 48.4325 27.7589C48.1927 27.7589 48.0129 27.8189 47.8331 27.8788C47.6532 27.9388 47.5933 28.1187 47.5334 28.3585C47.4734 28.5983 47.4135 28.958 47.4135 29.3777C47.4135 29.7974 47.4734 30.0972 47.5334 30.337C47.5933 30.5768 47.7132 30.6967 47.8331 30.8166C47.9529 30.9365 48.1328 30.9365 48.3725 30.9365Z" fill="#007893"/>
<path d="M52.0889 25.9603C51.969 25.9603 51.8491 25.9003 51.8491 25.7804V24.8211C51.8491 24.7012 51.9091 24.5813 52.0889 24.5813H53.2278C53.2877 24.5813 53.3476 24.5813 53.3476 24.6413C53.4076 24.7012 53.4076 24.7012 53.4076 24.7612V25.7204C53.4076 25.8403 53.3477 25.9003 53.2278 25.9003H52.0889V25.9603ZM51.9091 32.0756V26.6797H53.4076V32.0756H51.9091Z" fill="#007893"/>
<path d="M56.8242 32.1357C56.4046 32.1357 55.9851 32.0757 55.6853 32.0158C55.3856 31.9558 55.1459 31.776 54.9061 31.5361C54.7263 31.2963 54.5465 31.0565 54.4865 30.6968C54.3666 30.3371 54.3666 29.9174 54.3666 29.3778C54.3666 28.8382 54.4266 28.3586 54.4865 27.9988C54.5465 27.6391 54.7263 27.3393 54.9061 27.1595C55.0859 26.9796 55.3856 26.7997 55.6853 26.7398C55.9851 26.6798 56.4046 26.6199 56.8242 26.6199C57.2438 26.6199 57.6634 26.6798 57.9631 26.7398C58.2628 26.7997 58.5026 26.9796 58.7423 27.1595C58.9222 27.3393 59.102 27.6391 59.1619 27.9988C59.2219 28.3586 59.2818 28.7782 59.2818 29.3178C59.2818 29.8574 59.2219 30.2771 59.1619 30.6368C59.102 30.9966 58.9222 31.2963 58.7423 31.4762C58.5625 31.6561 58.3228 31.8359 57.9631 31.8959C57.6634 32.0757 57.3038 32.1357 56.8242 32.1357ZM56.8242 30.9366C57.0041 30.9366 57.1839 30.9366 57.3038 30.8767C57.4236 30.8167 57.5435 30.7567 57.6035 30.6968C57.6634 30.5769 57.7233 30.457 57.7833 30.2172C57.8432 29.9773 57.8432 29.7375 57.8432 29.3778C57.8432 29.0181 57.8432 28.7183 57.7833 28.5384C57.7233 28.2986 57.6634 28.1787 57.6035 28.0588C57.5435 27.9389 57.4236 27.8789 57.3038 27.8789C57.1839 27.819 57.0041 27.819 56.8242 27.819C56.6444 27.819 56.5245 27.819 56.4046 27.8789C56.2848 27.9389 56.1649 27.9988 56.1049 28.0588C56.045 28.1187 55.9851 28.2986 55.9251 28.5384C55.8652 28.7782 55.8652 29.0181 55.8652 29.3778C55.8652 29.7375 55.8652 29.9773 55.9251 30.2172C55.9851 30.457 56.045 30.5769 56.1049 30.6968C56.1649 30.8167 56.2848 30.8767 56.4046 30.8767C56.5245 30.9366 56.6444 30.9366 56.8242 30.9366Z" fill="#007893"/>
</g>
<defs>
<clipPath id="clip0">
<rect width="99.2626" height="32.8551" fill="white"/>
</clipPath>
</defs>
</svg>
