<svg width="296" height="56" xmlns="http://www.w3.org/2000/svg"><g fill="none" fill-rule="evenodd"><path d="M160.829 51.347a2.189 2.189 0 0 1-.639.1c-.703 0-1.19-.331-1.19-1.273 0-.95.559-1.331 1.24-1.331.329-.002.657.046.972.143v2.576h.827l.036.36h-1.246v-.575Zm0-2.044a1.886 1.886 0 0 0-.588-.064c-.464 0-.834.223-.834.935 0 .698.32.878.79.878a2.35 2.35 0 0 0 .632-.094v-1.655Zm-1.175-1.704h.349v.683h-.35v-.683Zm.783 0h.349v.683h-.35v-.683Z" fill="#375D1B" fill-rule="nonzero"/><path fill="#375D1B" fill-rule="nonzero" d="M162.001 51.562h1.11l.036.36h-1.11z"/><path d="M163.073 51.562h.885c-.261-.258-.413-.661-.413-1.244 0-1.109.61-1.612 1.415-1.612.456-.04.889.209 1.087.626l-.246.216c-.196-.39-.464-.475-.841-.475-.618 0-.994.381-.994 1.244 0 .785.312 1.245 1.03 1.245h1.13l.037.36h-3.052l-.038-.36ZM167.894 51.922c-.312 0-.747-.115-.747-.9v-3.654l.384-.058v3.67c0 .518.232.582.442.582h.639l.036.36h-.754Z" fill="#375D1B" fill-rule="nonzero"/><path d="M169.372 50.814c.094-.748.601-1.087 1.276-1.087.878 0 1.291.56 1.291 1.332 0 .098-.007.197-.022.294.265.137.559.208.856.209h.036l.036.36h-.043c-.334 0-.665-.069-.972-.202-.174.468-.572.691-1.182.691a1.365 1.365 0 0 1-.928-.36 1.167 1.167 0 0 1-.268-.417c-.23.207-.534.31-.841.288l-.036-.36c.5 0 .732-.252.797-.748m2.168.259c0-.685-.37-1-.892-1-.464 0-.819.237-.877.755l-.014.108a.826.826 0 0 0-.008.137c0 .683.349.978.863.978h.036c.646 0 .892-.287.892-.978M173.037 51.612l-.037-.36h2.988l-.08-.64c-.138-.95-.69-1.75-1.56-1.75h-.015a1.812 1.812 0 0 0-.956.204l.21-.426c.245-.098.505-.149.769-.15 1.029 0 1.747.84 1.92 2.072l.088.69h.805c.573 0 .783-.36.783-1.043v-3.151l.385-.058v3.324c0 .842-.377 1.288-1.168 1.288h-4.132Zm1.457.77h.384v.691h-.384v-.691ZM179.048 51.922v-4.554l.391-.058v4.612zM180.787 53.03c.087.007.167.007.246.007.847 0 1.189-.432 1.189-1.216-.19.062-.388.096-.588.101-.66 0-1.196-.417-1.196-1.309 0-.914.588-1.316 1.247-1.316.312-.003.623.043.922.136v2.424c0 1.007-.486 1.526-1.538 1.526h-.116l-.166-.353Zm1.436-3.302a1.546 1.546 0 0 0-.522-.094c-.435 0-.885.288-.885.971 0 .691.406.957.849.957.191-.008.38-.049.558-.122v-1.712ZM186.97 51.347a2.189 2.189 0 0 1-.638.1c-.703 0-1.19-.331-1.19-1.273 0-.95.56-1.331 1.24-1.331.33-.002.658.046.973.143v2.576h.826l.036.36h-1.247v-.575Zm0-2.044a1.884 1.884 0 0 0-.588-.064c-.463 0-.833.223-.833.935 0 .698.319.878.79.878.214-.003.426-.034.631-.094v-1.655Zm-1.174-1.705h.348v.683h-.348v-.683Zm.782 0h.35v.683h-.35v-.683Z" fill="#375D1B" fill-rule="nonzero"/><path fill="#375D1B" fill-rule="nonzero" d="M188.143 51.562h1.11l.036.36h-1.11z"/><path d="M191.304 51.922c-.42.002-.834-.11-1.197-.323a1.075 1.075 0 0 1-.848.323h-.007l-.037-.36h.008c.587 0 .805-.353.805-1.043v-1.662l.384-.057v1.834c.004.221-.036.441-.116.647.292.183.628.28.972.28h.036l.036.361h-.036Zm-1.276-4.575h.384v.69h-.384v-.69ZM194.912 45.944l-.058.058c-.036.036-.101.115-.218.222-.143.145-.231.194-.34.194a.511.511 0 0 1-.145-.021l-.02-.007c.145-.073.28-.168.398-.28.08-.08.167-.159.254-.238a.061.061 0 0 1-.037-.021.73.73 0 0 1-.109-.108.249.249 0 0 1-.072-.18.31.31 0 0 1 .204-.287.351.351 0 0 1 .166-.05.191.191 0 0 1 .144.06c.037.04.056.094.052.148a1.214 1.214 0 0 1-.072.251l-.023.065c.03.058.146.116.146.122-.008.108-.022.18-.022.217-.03-.021-.087-.05-.145-.087a1.386 1.386 0 0 1-.101-.058m.253.641v.323c0 .122-.044.23-.16.23a.242.242 0 0 1-.188-.092.714.714 0 0 0 .014-.123v-.295l-.16.044v.244c0 .173-.042.274-.18.274-.145 0-.196-.116-.196-.288v-.267l-.16.029v.302c0 .237.103.41.356.41a.328.328 0 0 0 .282-.158c.061.063.145.097.232.094.24 0 .32-.187.32-.396v-.381l-.16.05Zm-.239-.9c.007-.014.007-.028.014-.05a.548.548 0 0 0 .015-.108.122.122 0 0 0-.03-.097.12.12 0 0 0-.093-.04c-.065 0-.1.037-.1.072a.1.1 0 0 0 .02.052.44.44 0 0 0 .109.12.44.44 0 0 1 .065.052" fill="#375D1B" fill-rule="nonzero"/><path d="M191.252 51.562h.61c.587 0 .805-.353.805-1.043v-1.173l.384-.057v1.345a1.504 1.504 0 0 1-.13.684c-.008.029-.037.064-.045.093.075.03.153.052.233.065l.086.022c.264.047.53.069.798.064.588 0 .805-.353.805-1.043v-1.475l.392-.064v1.654c.009.223-.034.444-.124.647.295.183.633.28.979.281.602 0 .812-.344.812-1.043v-1.662l.392-.058v1.835c0 .223-.037.444-.11.655.297.178.635.272.98.273h.036l.036.36h-.043a2.33 2.33 0 0 1-1.198-.323c-.23.229-.547.346-.87.322a2.37 2.37 0 0 1-1.203-.322c-.221.23-.532.348-.848.322a6.132 6.132 0 0 1-1.117-.114c-.05-.008-.102-.014-.138-.023a.6.6 0 0 1-.145-.05c-.218.134-.47.199-.725.188h-.616l-.036-.36Z" fill="#375D1B" fill-rule="nonzero"/><path fill="#375D1B" fill-rule="nonzero" d="M198.115 51.562h1.11l.036.36h-1.11z"/><path d="M199.187 51.562c.602 0 .813-.344.813-1.043v-3.153l.391-.057v3.324c0 .842-.377 1.286-1.167 1.286l-.037-.357ZM201.334 51.922v-4.554l.39-.058v4.612zM207.416 52.691a7.551 7.551 0 0 1-1.653.173c-1.052 0-1.545-.51-1.545-1.54v-2.108l.385-.418v2.475c0 .836.349 1.245 1.19 1.245a7.656 7.656 0 0 0 1.231-.108v-5.043l.392-.057v3.971c.292.183.629.28.972.281h.037l.035.36h-.043c-.345 0-.686-.074-1-.216v.985Z" fill="#375D1B" fill-rule="nonzero"/><path d="M209.357 51.224c0-.863.442-1.109.877-1.109s.87.246.87 1.11v.337h.943v-.899c0-.929-.617-1.554-1.407-1.554a2.097 2.097 0 0 0-.921.173l-.086-.346a2.766 2.766 0 0 1 1.014-.194c.942 0 1.792.634 1.792 1.871v1.31h-4.018l-.036-.36h.972v-.339Zm.877-.742c-.464 0-.508.39-.508.742v.338h.994v-.338c0-.332-.051-.742-.486-.742M212.907 46.59h.255a.785.785 0 0 1-.087-.38.554.554 0 0 1 .144-.43.542.542 0 0 1 .414-.175c.2-.001.387.092.508.252l-.166.194a.603.603 0 0 0-.342-.194c-.166 0-.29.115-.29.353 0 .252.095.38.29.38h.552l-.132.252h-1.268l.122-.252Zm.45 5.332v-4.554l.391-.058v4.612h-.391ZM220.621 51.562l.036.36h-.333c-.674 0-1.138-.352-1.219-.928h-1.84c-.117 0-.624.043-.624.79v.023c0 .828.34 1.215 1.174 1.215.41 0 .82-.035 1.225-.107l.399.295a9.24 9.24 0 0 1-1.653.173c-1.03 0-1.544-.504-1.544-1.504v-.036c0-.994.667-1.173.913-1.21h1.85c-.19-.776-.74-1.41-1.487-1.41h-.015a1.817 1.817 0 0 0-.957.21l.21-.425c.256-.096.525-.147.798-.151 1 0 1.712.792 1.885 2.021a.76.76 0 0 0 .274.52.743.743 0 0 0 .56.163h.348Zm-2.436.022h-.384v.698h.384v-.698Z" fill="#375D1B" fill-rule="nonzero"/><path fill="#375D1B" fill-rule="nonzero" d="M220.582 51.562h1.11l.036.36h-1.108z"/><path d="M222.627 51.224c0-.863.442-1.109.877-1.109s.87.246.87 1.11v.337h.944v-.899c0-.929-.618-1.554-1.408-1.554a2.098 2.098 0 0 0-.92.173l-.087-.346a2.767 2.767 0 0 1 1.015-.194c.942 0 1.79.634 1.79 1.871v.95h.972l.036.36h-5.025l-.036-.36h.972v-.339Zm.878-.742c-.464 0-.508.39-.508.742v.338h.994v-.338c0-.332-.051-.742-.486-.742" fill="#375D1B" fill-rule="nonzero"/><path fill="#375D1B" fill-rule="nonzero" d="M226.642 51.562h1.109l.036.36h-1.11z"/><path d="M229.803 51.922c-.42.002-.834-.11-1.197-.323a1.076 1.076 0 0 1-.848.323h-.008l-.036-.36h.007c.587 0 .806-.353.806-1.043v-1.662l.384-.057v1.834c.003.221-.036.441-.117.647.292.183.628.28.972.28h.037l.035.361h-.035Zm-1.276-4.575h.384v.69h-.384v-.69Z" fill="#375D1B" fill-rule="nonzero"/><path d="M229.764 51.562h1.116a1.288 1.288 0 0 1-.362-.993c0-.906.55-1.324 1.29-1.324.878 0 1.284.562 1.284 1.324 0 .943-.443 1.353-1.284 1.353H229.8l-.036-.36Zm2.929-.971c0-.684-.362-1.008-.885-1.008-.529 0-.899.324-.899 1.008 0 .67.35.971.862.971h.036c.639 0 .885-.28.885-.971M238.385 51.743a8.173 8.173 0 0 1-1.712.172c-1.052 0-1.544-.511-1.544-1.54v-.986l.398-.41v1.339c0 .835.34 1.237 1.175 1.237a6.78 6.78 0 0 0 1.218-.108c-.667-2.712-.507-1.942-.595-2.317l-.087-.337h.544c.775 0 1.153.316 1.327 1.064l.276 1.195c.094.467.42.51.71.51h.015l.036.36h-.008c-.399 0-.957-.02-1.131-.777l-.225-1.021c-.174-.756-.326-.986-.811-.986h-.226l.64 2.605Z" fill="#375D1B" fill-rule="nonzero"/><path fill="#375D1B" fill-rule="nonzero" d="M240.07 51.562h1.11l.036.36h-1.108z"/><path d="M243.232 51.922c-.42.002-.834-.11-1.197-.323a1.076 1.076 0 0 1-.848.323h-.008l-.036-.36h.007c.588 0 .806-.353.806-1.043v-3.151l.383-.058v3.324c.004.221-.035.441-.116.647.292.184.63.28.973.281h.036l.036.36h-.036Z" fill="#375D1B" fill-rule="nonzero"/><path d="M243.195 51.562h.884c-.261-.258-.414-.661-.414-1.244 0-1.109.61-1.612 1.415-1.612.456-.041.89.208 1.087.626l-.246.216c-.195-.39-.464-.475-.841-.475-.616 0-.994.381-.994 1.244 0 .785.312 1.245 1.03 1.245h1.131l.036.36h-3.052l-.036-.36ZM252.387 51.562h.522l.036.36h-.558v.77c-.138.007-.283.043-.435.05-.466.07-.936.113-1.407.13-.986 0-1.842-.296-1.842-1.547v-1.383l.384-.408v1.733c0 1.014.66 1.258 1.43 1.258.497-.008.994-.05 1.486-.128v-.475c-.812 0-1.567-.324-1.82-1.166-.487-1.748 2.196-2.216 2.204-.394v1.2Zm-.384-1.23c-.204-1.286-1.77-.82-1.45.323.18.626.608.907 1.45.907v-1.23Zm-1.335-2.597h.356v.683h-.356v-.683Zm.783 0h.349v.683h-.349v-.683Z" fill="#375D1B" fill-rule="nonzero"/><path fill="#375D1B" fill-rule="nonzero" d="M252.87 51.562h1.11l.035.36h-1.108zM254.123 44.382l.008-.195 1.356-.187-.008.187-1.356.195Zm1.277.122v.388c0 .209-.08.396-.32.396a.309.309 0 0 1-.232-.094.338.338 0 0 1-.282.152c-.254 0-.355-.16-.355-.41v-.296l.159-.029v.266c0 .173.051.289.196.289.137 0 .18-.109.18-.274v-.244l.16-.044v.288a.623.623 0 0 1-.014.122c.045.06.114.098.188.1.117 0 .16-.114.16-.229v-.324l.16-.057Z"/><path d="M253.943 51.562c.602 0 .812-.345.812-1.043v-1.662l.391-.057v1.834c0 .842-.377 1.288-1.167 1.288l-.036-.36Zm.072-4.201h.348v.676h-.348v-.676Zm.384-.936h.349v.562h-.349v-.562Zm.4.936h.348v.676h-.349v-.676ZM256.32 53.03c.087.007.166.007.246.007.812 0 1.145-.396 1.182-1.115h-.58c-.66 0-1.197-.417-1.197-1.309 0-.914.587-1.316 1.247-1.316.312-.003.623.043.921.136v2.13h.464l.036.36h-.5c-.029.956-.515 1.459-1.537 1.459h-.116l-.167-.352Zm.029-2.425c0 .691.406.957.849.957h.557v-1.834a1.565 1.565 0 0 0-.522-.094c-.435 0-.885.288-.885.971" fill="#375D1B" fill-rule="nonzero"/><path fill="#375D1B" fill-rule="nonzero" d="M258.566 51.562h1.11l.036.36h-1.108z"/><path d="M259.64 51.562h1.116a1.288 1.288 0 0 1-.363-.993c0-.906.55-1.324 1.29-1.324.879 0 1.285.562 1.285 1.324 0 .943-.443 1.353-1.285 1.353h-2.008l-.036-.36Zm2.928-.971c0-.684-.362-1.008-.885-1.008-.528 0-.898.324-.898 1.008 0 .67.349.971.863.971h.035c.64 0 .885-.28.885-.971M268.258 51.743a8.126 8.126 0 0 1-1.711.172c-1.052 0-1.545-.511-1.545-1.54v-.986l.4-.41v1.338c0 .836.34 1.238 1.174 1.238.408.001.816-.035 1.218-.108-.667-2.712-.507-1.943-.595-2.317l-.087-.338h.544c.775 0 1.152.317 1.327 1.065l.275 1.195c.095.467.421.51.71.51h.015l.037.36h-.008c-.399 0-.957-.02-1.13-.778l-.227-1.02c-.174-.756-.326-.987-.812-.987h-.226l.641 2.606Zm-1.66.963h-.355v.683h.354v-.683Zm.775 0h-.348v.683h.348v-.683Z" fill="#375D1B" fill-rule="nonzero"/><path d="M270.742 50.814c.095-.748.602-1.087 1.276-1.087.878 0 1.292.56 1.292 1.332 0 .098-.006.197-.02.294.264.137.557.209.854.209h.036l.037.36h-.045c-.334 0-.665-.069-.972-.202-.174.468-.573.691-1.182.691a1.365 1.365 0 0 1-.928-.36 1.169 1.169 0 0 1-.267-.417c-.23.206-.534.31-.841.288l-.036-.36c.5 0 .732-.252.797-.748m2.168.259c0-.685-.369-1-.892-1-.464 0-.819.237-.876.755l-.015.108a.826.826 0 0 0-.008.137c0 .683.349.978.863.978h.036c.646 0 .892-.287.892-.978" fill="#375D1B" fill-rule="nonzero"/><path d="M276.23 51.922c-.42.002-.834-.11-1.197-.323a1.076 1.076 0 0 1-.848.323h-.008l-.036-.36h.007c.588 0 .806-.353.806-1.043v-3.151l.383-.058v3.324c.004.221-.035.441-.115.647.291.183.628.28.971.281h.037l.036.36h-.036Z" fill="#375D1B" fill-rule="nonzero"/><path d="M276.193 51.562h.884c-.26-.258-.413-.661-.413-1.244 0-1.109.609-1.612 1.413-1.612.457-.04.89.209 1.088.626l-.246.216c-.195-.39-.464-.475-.842-.475-.615 0-.993.381-.993 1.244 0 .785.312 1.245 1.03 1.245h1.131l.036.36h-3.052l-.036-.36ZM282.723 50.994c-.116 0-.624.042-.624.79v.023c0 .827.34 1.216 1.175 1.216.41 0 .82-.036 1.226-.108l.398.294a9.193 9.193 0 0 1-1.653.174c-1.03 0-1.545-.504-1.545-1.505v-.035c0-.993.668-1.173.914-1.209-.26-.108-.47-.396-.47-.942 0-1.101.608-1.353 1.405-1.353.47-.026.907.246 1.095.683l-.246.216a.854.854 0 0 0-.841-.54c-.616 0-.994.146-.994.994 0 .776.29.943.972.943h1l.102.36h-.551c0 .525.384.568.848.568h.32l.035.359h-.043c-.79 0-1.552-.044-1.574-.927h-.949Z" fill="#375D1B" fill-rule="nonzero"/><path d="M288.63 51.922h-3.379l-.035-.36h2.987l-.08-.64c-.138-.95-.689-1.75-1.56-1.75h-.014a1.815 1.815 0 0 0-.957.204l.21-.426c.25-.097.516-.148.784-.15 1.022 0 1.733.84 1.907 2.072l.137 1.05Zm-1.537.77h-.383v.69h.384v-.69ZM289.107 53.03c.087.007.152.007.24.007.84 0 1.19-.41 1.19-1.245v-2.136l.384-.058v1.684c.294.184.633.281.98.28h.035l.036.36h-.043c-.347 0-.69-.074-1.008-.215v.137c0 1.028-.493 1.54-1.545 1.54h-.11l-.159-.354Z" fill="#375D1B" fill-rule="nonzero"/><path d="M291.897 51.562h1.117a1.288 1.288 0 0 1-.363-.993c0-.906.551-1.324 1.291-1.324.878 0 1.284.562 1.284 1.324 0 .943-.442 1.353-1.284 1.353h-2.008l-.037-.36Zm2.93-.971c0-.684-.363-1.008-.885-1.008-.53 0-.9.324-.9 1.008 0 .67.35.971.864.971h.036c.639 0 .885-.28.885-.971" fill="#375D1B" fill-rule="nonzero"/><path fill="#D8BE9B" fill-rule="nonzero" d="M158.071 41.37h137.47v1h-137.47z"/><path d="m253.37 13.642 4.757.008v.187c-.237-.026-.826-.021-1.126.292-.315.332-.267 1.015-.268 1.728l.03 9.47c-.005.181-.008.863-.01 1.526v.984l-.001.125v.32c0 3.325-1.047 5.536-3.053 7.43-1.597 1.509-3.5 2.324-5.927 2.676v-.485a7.091 7.091 0 0 0 2.467-.9 10.04 10.04 0 0 0 2.938-2.866c1.992-2.517 1.58-6.532 1.58-6.532l.01-11.711c.003-.87-.011-1.311-.32-1.709-.193-.249-.503-.389-1.076-.36l-.002-.183Zm-9.754-.002 4.758.01v.186c-.236-.024-.827-.02-1.126.293-.315.331-.267 1.015-.267 1.728l.029 9.47c-.007.215-.01 1.128-.011 1.883l-.001.753v.32c0 3.324-1.047 5.534-3.053 7.43-1.597 1.508-3.5 2.323-5.928 2.676v-.485a7.115 7.115 0 0 0 2.467-.9 10.041 10.041 0 0 0 2.938-2.866c1.993-2.519 1.582-6.534 1.582-6.534l.008-11.71c.004-.87-.011-1.312-.32-1.71-.19-.249-.501-.389-1.076-.359v-.185ZM227.918.125v.187c-.656.018-1.049.144-1.18.38a2.474 2.474 0 0 0-.198 1.15v22.751c0 .52.085.89.254 1.107.166.214.533.324 1.1.324v.7H195.17c-.544 2.28-2.562 3.886-4.882 3.886s-4.338-1.606-4.882-3.886H158v-1.152c.004-1.11.016-3.446.086-3.783.68-3.35 2.809-5.02 4.505-6.089 2.175-1.373 4.876-1.832 7.318-1.832 2.43 0 4.166.712 5.32 1.168-.011-.404-.05-.696-.178-.841-.274-.317-.62-.386-1.194-.357l-.002-.157 4.761.007-.003.166c-.177-.017-.775-.017-1.118.377-.273.312-.277.811-.28 1.525l.02 9.815h8.026v-9.655c.004-.873.027-1.482-.18-1.72-.272-.317-.619-.386-1.193-.357v-.157l4.758.007-.001.166c-.177-.017-.774-.017-1.117.377-.274.312-.278.811-.28 1.524l.021 10.967c0 1.817 1.219 3.29 3.017 3.29 1.797 0 3.029-1.474 3.029-3.29l-.003-10.807c.008-.872.028-1.482-.177-1.72-.274-.317-.62-.386-1.194-.357l-.001-.157 4.757.007v.166c-.177-.017-.773-.017-1.116.377-.274.312-.279.811-.28 1.525l.02 9.814h6.715v-9.655c.007-.872.028-1.481-.177-1.72-.273-.316-.62-.386-1.195-.356v-.158l4.758.007v.166c-.179-.017-.773-.017-1.117.377-.274.313-.279.812-.28 1.525l.019 9.815h4.22v-9.655c.003-.872.026-1.482-.18-1.72-.274-.317-.62-.386-1.195-.357v-.157l4.76.006-.004.166c-.176-.017-.772-.017-1.116.377-.273.312-.278.811-.278 1.525l.017 9.814h3.94v-9.655c.005-.872.027-1.481-.18-1.72-.272-.316-.618-.386-1.193-.356v-.158l4.76.007-.004.166c-.177-.017-.772-.017-1.117.377-.273.313-.277.812-.28 1.525l.02 9.815h1.894a.034.034 0 0 0 .002-.017c.054.008.107.01.161.017h3.386c.91-.07 1.579-.286 2-.65.528-.452.789-1.229.789-2.334V1.968a3.92 3.92 0 0 0-.086-1.07.84.84 0 0 0-.359-.412 1.879 1.879 0 0 0-.944-.174V.125h4.86Zm67.622.24-.01.187a1.829 1.829 0 0 0-.796.113.698.698 0 0 0-.516.436c-.072.447-.1.9-.081 1.354v22.282c0 .765.03 1.23.093 1.4a.815.815 0 0 0 .357.424c.295.137.62.194.942.167v.188h-4.839v-.188c.606.001.983-.117 1.132-.354.148-.236.223-.773.223-1.61V2.615c0-.87-.083-1.44-.248-1.708-.162-.27-.531-.389-1.107-.356l.01-.187h4.84Zm-7.935-.24v.187c-.655.018-1.049.144-1.176.38a2.472 2.472 0 0 0-.2 1.15v22.751c0 .52.086.89.253 1.108.168.213.536.323 1.102.323v.7h-26.742v-1.152h15.974c.027-1.018-.058-3.005-.094-3.456-.38-2.888-1.858-4.8-2.914-5.717-1.67-1.449-3.94-1.974-6.634-1.997-1.981.015-3.305.222-5.93 1.963v-2.941c.36.595.861.938 1.124.887 2.78-.539 8.297-1.046 12.155 1.388 1.696 1.069 3.825 2.739 4.506 6.089.069.337.08 2.672.083 3.783h2.233c.91-.07 1.58-.286 2.001-.65.527-.452.789-1.229.789-2.335V1.968c.02-.359-.01-.719-.086-1.07a.838.838 0 0 0-.36-.412 1.882 1.882 0 0 0-.943-.174V.125h4.86ZM169.942 14.402c-2.697 0-4.964.548-6.637 1.997-1.056.917-2.533 2.83-2.914 5.717-.034.451-.12 2.438-.092 3.456h14.93v-9.655l.002-.206c-1.306-.563-3.39-1.31-5.289-1.31ZM231.001.188c.575-.033.945.085 1.107.356.167.27.246.837.246 1.708v22.146c0 .837-.075 1.374-.22 1.61-.15.237-.527.356-1.134.356v.187h4.838v-.187a1.861 1.861 0 0 1-.941-.169.83.83 0 0 1-.358-.423c-.061-.17-.092-.635-.092-1.4V2.09a6.786 6.786 0 0 1 .08-1.355.701.701 0 0 1 .517-.435c.254-.096.525-.134.794-.113L235.85 0h-4.837l-.011.188Z" fill="#45773A" fill-rule="nonzero"/><path d="M190.465 11.265c.751 0 1.36-.616 1.36-1.375 0-.76-.608-1.375-1.36-1.376-.75 0-1.36.614-1.361 1.374 0 .76.609 1.376 1.36 1.377M170.368 11.265c.75 0 1.36-.615 1.36-1.375s-.608-1.375-1.36-1.376c-.75 0-1.36.614-1.361 1.374 0 .365.142.715.398.973.255.259.601.404.963.404M166.8 11.265c.75 0 1.36-.615 1.361-1.374 0-.76-.608-1.376-1.36-1.377-.75 0-1.36.614-1.361 1.374 0 .365.142.715.397.973s.601.404.962.404M182.625 28.23a1.36 1.36 0 0 0-1.257.85 1.387 1.387 0 0 0 .296 1.5c.39.393.976.51 1.484.296.509-.214.84-.716.839-1.273a1.369 1.369 0 0 0-1.362-1.373M179.057 28.23a1.36 1.36 0 0 0-1.257.85 1.387 1.387 0 0 0 .297 1.5c.39.393.975.51 1.484.296.508-.214.839-.716.838-1.273a1.369 1.369 0 0 0-1.362-1.373" fill="#45773A" fill-rule="nonzero"/><path d="M267.241 6.033v1.234c0 .676-.255 1.282-1.014 1.282a.978.978 0 0 1-.739-.302c-.189.319-.53.513-.897.512-.808 0-1.129-.56-1.129-1.328v-.98l.505-.092v.863c0 .56.163.93.623.93.438 0 .575-.325.575-.885v-.792l.508-.14v.955c-.006.133-.021.266-.045.397.142.189.363.3.598.303.369 0 .507-.35.507-.745v-1.05l.508-.162Zm-83.902-1.408V5.86c0 .677-.254 1.281-1.014 1.281a.97.97 0 0 1-.738-.301c-.19.318-.53.512-.898.512-.806 0-1.13-.56-1.13-1.33v-.977l.506-.093v.862c0 .559.162.93.624.93.437 0 .574-.324.574-.885v-.79l.509-.14v.954c-.006.133-.021.265-.047.396.143.19.364.301.6.303.368 0 .506-.349.506-.744v-1.05l.508-.162Zm27.48.016v1.17c0 .642-.24 1.216-.96 1.216a.918.918 0 0 1-.7-.286.993.993 0 0 1-.853.485c-.765 0-1.072-.531-1.072-1.26v-.929l.48-.087v.818c0 .53.154.882.592.882.414 0 .545-.308.545-.839V5.06l.482-.132v.905c-.004.126-.02.252-.043.376.135.18.345.286.568.287.35 0 .48-.33.48-.706v-.995l.481-.154Zm55.176-2.847c.174-.002.34.07.46.199a.629.629 0 0 1 .163.476 1.489 1.489 0 0 1-.046.256 3.799 3.799 0 0 1-.185.56l-.068.21c.092.184.46.372.46.396-.022.349-.07.582-.07.698-.091-.07-.276-.163-.46-.278a5.08 5.08 0 0 1-.321-.187l-.185.187c-.115.115-.323.37-.692.72-.462.467-.738.629-1.084.629a1.662 1.662 0 0 1-.459-.07l-.07-.023c.344-.117.83-.536 1.268-.907.252-.257.53-.513.806-.769a.211.211 0 0 1-.115-.07 2.32 2.32 0 0 1-.345-.35.814.814 0 0 1-.231-.583c.003-.416.26-.786.646-.932.16-.097.342-.153.528-.162Zm-20.762 0c.173-.002.34.07.458.199a.629.629 0 0 1 .164.476 1.534 1.534 0 0 1-.046.256 3.95 3.95 0 0 1-.185.56l-.069.209c.093.186.46.373.46.397-.023.348-.068.582-.068.698-.092-.07-.277-.163-.46-.278-.094-.047-.21-.117-.324-.187l-.183.187c-.118.115-.324.37-.692.72-.462.467-.738.63-1.084.63a1.739 1.739 0 0 1-.462-.07l-.067-.023c.345-.118.83-.537 1.267-.908.254-.258.53-.514.806-.769a.215.215 0 0 1-.115-.07 2.323 2.323 0 0 1-.345-.35.821.821 0 0 1-.23-.583c.003-.416.26-.786.644-.932.161-.097.343-.153.53-.162Zm-32.41.037-.043.575-8.075 1.184v-.597l8.119-1.162Zm52.85.499c-.206 0-.322.117-.322.233.006.06.03.116.07.162l.07.11c.077.108.169.204.273.285.076.048.146.103.21.165.021-.047.021-.093.045-.164.027-.114.042-.231.046-.349a.392.392 0 0 0-.094-.313.383.383 0 0 0-.298-.13Zm-20.764-.001c-.207 0-.321.117-.321.233.007.06.03.116.068.163.09.152.207.287.346.396.075.047.145.102.21.164.016-.054.03-.109.042-.164a1.8 1.8 0 0 0 .048-.35.392.392 0 0 0-.095-.313.383.383 0 0 0-.298-.129Zm-61.349-.362-.046.607-4.263.63v-.63l4.31-.607Zm72.365-.173-.045.606-4.264.63V2.4l4.309-.606ZM183.972 37.405l.595.597-.587.643-.595-.597.587-.643Zm32.58 0 .596.597-.588.643-.595-.597.587-.643ZM163.92 34.15l.349.174-1.732 4.175-.185-.11-1.19-3.211-1.26 3.331-.186-.1-1.645-4.085.359-.174 1.392 3.533 1.252-3.395.158-.128 1.251 3.523 1.437-3.533Zm16.689 0 .35.175-1.734 4.174-.183-.11-1.192-3.211-1.26 3.331-.184-.1-1.646-4.084.358-.175 1.393 3.534 1.252-3.396.158-.128 1.252 3.524 1.436-3.534Zm-8.345 0 .349.175-1.732 4.174-.184-.11-1.191-3.211-1.26 3.331-.184-.1-1.647-4.084.359-.175 1.392 3.534 1.252-3.396.158-.128 1.252 3.524 1.436-3.534Zm34.63.037c.135.002.269.017.4.046a1.2 1.2 0 0 1 .397.166.952.952 0 0 1 .307.33c.087.163.13.347.123.532v3.22l-.422-.156a2.075 2.075 0 0 1-.254.05l-.341.047a6.824 6.824 0 0 1-.726.05.864.864 0 0 1-.42-.106 1.23 1.23 0 0 1-.341-.28 1.389 1.389 0 0 1-.232-.384 1.164 1.164 0 0 1-.084-.432c-.01-.254.057-.506.193-.72.132-.19.312-.34.521-.436.241-.11.499-.18.762-.206.306-.034.615-.048.923-.041v-.471c0-.567-.292-.85-.875-.85-.2.001-.4.028-.595.077a1.834 1.834 0 0 0-.596.27l-.166-.349a2.01 2.01 0 0 1 .735-.294c.228-.04.46-.061.692-.063Zm-16.164-2.192v6.395l-.42-.175c-.21.062-.401.119-.573.174a1.95 1.95 0 0 1-.592.083 1.868 1.868 0 0 1-.784-.166 1.94 1.94 0 0 1-.63-.453 2.157 2.157 0 0 1-.42-.68 2.31 2.31 0 0 1-.153-.849c-.003-.29.048-.58.149-.853.092-.252.234-.483.415-.679.37-.393.886-.612 1.423-.605.216-.003.431.023.64.077.187.056.365.141.525.254V32.13l.42-.137Zm42.711.907v1.367h1.103v.358h-1.103v2.45c0 .178.003.33.01.456 0 .104.023.207.065.302.037.075.099.135.175.169.107.042.222.06.336.055a.938.938 0 0 0 .264-.032c.1-.03.196-.069.29-.114l.165.348a1.719 1.719 0 0 1-.393.148 1.746 1.746 0 0 1-.42.062c-.112 0-.223-.016-.33-.05a.875.875 0 0 1-.293-.156.742.742 0 0 1-.21-.27.932.932 0 0 1-.079-.403v-2.965h-.744v-.358h.744V33.14l.42-.239Zm-5.41 1.285c.214.001.426.041.626.12.21.08.4.203.56.362.176.175.313.386.403.619.108.283.16.586.153.89h-3.1c-.059.482.088.967.404 1.334.145.169.324.305.524.4.2.097.418.147.64.147a1.75 1.75 0 0 0 .639-.115c.22-.088.426-.207.614-.353l.209.33c-.426.357-.962.551-1.514.55a1.861 1.861 0 0 1-1.41-.618 2.038 2.038 0 0 1-.407-.693 2.588 2.588 0 0 1-.145-.881 2.5 2.5 0 0 1 .136-.835c.083-.244.21-.47.376-.666a1.666 1.666 0 0 1 1.291-.592Zm-31.509.16c.243.103.463.256.645.45.183.198.328.43.424.683.104.272.156.562.153.854.003.29-.049.577-.153.848a2.123 2.123 0 0 1-.424.68 1.912 1.912 0 0 1-.645.449 2.068 2.068 0 0 1-1.6 0 1.918 1.918 0 0 1-.645-.45 2.165 2.165 0 0 1-.428-.68 2.23 2.23 0 0 1-.158-.847c-.002-.293.051-.583.158-.854.098-.253.244-.485.428-.683.182-.193.401-.347.645-.45a2.08 2.08 0 0 1 1.6 0Zm25.169-.151c.408-.019.805.134 1.098.422.278.281.416.701.416 1.257v2.514h-.42V36.04a1.608 1.608 0 0 0-.315-1.069 1.046 1.046 0 0 0-.841-.372 2.827 2.827 0 0 0-.744.088c-.193.05-.377.132-.543.242v3.46h-.42v-4.12l.42.229v-.019c.199-.098.41-.168.627-.21.237-.05.48-.075.722-.074Zm-19.394-.047c.156-.005.312.01.464.046.105.03.206.077.298.138l-.236.44a.905.905 0 0 0-.561-.164c-.21.004-.417.056-.605.151a1.148 1.148 0 0 0-.516.583v3.046h-.42V34.36l.42.257h.017a1.84 1.84 0 0 1 .5-.326 1.5 1.5 0 0 1 .639-.142Zm10.533 0c.156-.005.312.01.464.046.106.03.206.077.298.138l-.236.44a.904.904 0 0 0-.56-.164c-.21.004-.417.056-.605.151a1.147 1.147 0 0 0-.517.583v3.046h-.42V34.36l.42.257h.018c.148-.135.316-.245.5-.326.2-.094.418-.142.638-.142Zm-5.877 2.093a2.25 2.25 0 0 0-.631.151c-.172.068-.323.18-.438.327a.872.872 0 0 0-.164.55.83.83 0 0 0 .226.596.74.74 0 0 0 .56.239 4.104 4.104 0 0 0 .973-.124c.076-.02.15-.05.22-.087v-1.67a4.967 4.967 0 0 0-.746.018Zm-17.79-1.633a1.557 1.557 0 0 0-.626.124c-.188.08-.356.2-.496.35a1.55 1.55 0 0 0-.323.536 1.95 1.95 0 0 0-.115.68 2.02 2.02 0 0 0 .118.697 1.64 1.64 0 0 0 .85.937c.205.093.428.14.653.136.196.005.391-.029.574-.1.176-.076.348-.162.513-.258l-.001-2.708a1.774 1.774 0 0 0-.573-.316 2.045 2.045 0 0 0-.575-.078Zm6.558-.01a1.464 1.464 0 0 0-.622.134 1.53 1.53 0 0 0-.498.363c-.145.16-.258.347-.333.55-.083.22-.125.454-.123.689-.002.234.04.465.123.683.076.202.189.387.333.546.14.154.31.277.499.363.195.089.408.134.622.132.213.002.423-.043.617-.132.187-.087.355-.21.494-.363.144-.16.257-.345.333-.547a1.98 1.98 0 0 0 0-1.367 1.803 1.803 0 0 0-.333-.551 1.538 1.538 0 0 0-.495-.366 1.432 1.432 0 0 0-.617-.134Zm32.31 0a1.19 1.19 0 0 0-.84.327c-.246.24-.41.553-.466.894h2.55c-.153-.814-.568-1.22-1.244-1.22Z" fill="#7F5B2A" fill-rule="nonzero"/><g fill="#4E4E4E" fill-rule="nonzero"><path d="m135.699 22.963 1.268-.274.033-7.64-.11-.068-1.28.353v7.56l.089.07Zm-4.07-.08c.588 0 1.071-.072 1.45-.216a1.67 1.67 0 0 0 .877-.759c.206-.36.309-.864.309-1.51v-5.349l-.1-.068-1.279.353v5.132c0 .35-.026.63-.077.844-.191.098-.485.148-.883.148l-.297 1.425Zm-2.085.149c.206 0 .386-.046.54-.137.155-.091.287-.228.398-.41.154.136.321.237.501.301.18.065.392.097.635.097.257 0 .448-.085.573-.256.125-.171.188-.409.188-.713a.468.468 0 0 0-.116-.33c-.077-.084-.193-.126-.348-.126a1.55 1.55 0 0 1-.529-.074.798.798 0 0 1-.347-.263 3.244 3.244 0 0 1-.337-.575c-.191-.388-.36-.698-.507-.93a2.075 2.075 0 0 0-.513-.564 1.108 1.108 0 0 0-.678-.217c-.287 0-.546.091-.778.274a2.805 2.805 0 0 0-.607.667c-.172.262-.398.64-.678 1.135-.088.16-.167.277-.237.353a.522.522 0 0 1-.248.154c-.096.027-.228.04-.397.04l-.298 1.425c.316 0 .577-.013.783-.04a1.49 1.49 0 0 0 1.048-.599c.353.26.702.455 1.048.588.345.133.647.2.904.2Zm-.198-1.346c-.155 0-.335-.046-.54-.137a4.388 4.388 0 0 1-.652-.365c.17-.327.317-.574.442-.741.125-.167.246-.25.364-.25.117 0 .25.102.397.307.147.205.301.51.463.912l.033.069a.562.562 0 0 1-.21.154.765.765 0 0 1-.297.051Zm-7.743-5.018.695-1.094-1.125-.787-.706 1.06 1.136.821Zm.993 1.631.705-1.095-1.125-.798-.507.764-1.07-.764-.706 1.072 1.125.821.497-.787 1.08.787Zm.099 4.584c.573 0 1.044-.163 1.412-.49.213.152.472.272.777.36.305.087.598.13.877.13.265 0 .454-.087.568-.262.114-.175.171-.41.171-.707a.499.499 0 0 0-.105-.33c-.07-.084-.182-.126-.336-.126a4.06 4.06 0 0 1-.7-.057 2.625 2.625 0 0 1-.569-.16c.11-.372.166-.817.166-1.334 0-.228-.011-.479-.033-.753l-.077-.034-1.38.525c.06.342.09.703.09 1.083 0 .274-.023.475-.067.604-.162.084-.371.126-.629.126-.286 0-.562-.038-.827-.114.14-.342.302-.84.485-1.494l-.044-.046-1.39.24-.12.502c-.096.471-.17.74-.221.81-.089.068-.22.102-.397.102a3.797 3.797 0 0 1-1.103-.182c.103-.267.268-.742.496-1.426l-.044-.046-1.49.24c-.036.266-.078.52-.126.764a2.672 2.672 0 0 1-.138.513c-.103.046-.244.08-.424.103a6.77 6.77 0 0 1-.79.034l-.297 1.425c.507 0 .923-.038 1.246-.114.324-.076.596-.201.817-.376.206.137.457.253.755.348.298.095.609.142.932.142.427 0 .776-.102 1.048-.308.206.1.425.175.656.229.232.053.495.08.789.08h.022Zm-10.478 2.087a6.084 6.084 0 0 0 1.489-.462c.448-.209.83-.467 1.147-.775.316-.308.544-.648.684-1.02.257.113.555.17.893.17.265 0 .454-.087.568-.262.114-.175.171-.41.171-.707a.499.499 0 0 0-.105-.33c-.07-.084-.185-.126-.347-.126a2.12 2.12 0 0 1-.612-.069.732.732 0 0 1-.37-.279c-.103-.14-.206-.36-.309-.656l-.474-1.39h-.132l-.982 1.162c.228.48.5 1.084.816 1.813-.125.251-.323.49-.595.719-.272.228-.62.435-1.042.621-.423.187-.91.33-1.462.428l-.077.114.739 1.05Zm-1.886-8.575.728-1.14-1.17-.844-.738 1.117 1.18.867Zm-2.769 6.625c.964 0 1.79-.051 2.482-.154.691-.102 1.184-.272 1.478-.507.132-.1.25-.26.353-.485.103-.224.184-.483.243-.775a4.59 4.59 0 0 0 .088-.907c0-.54-.077-1.036-.232-1.488-.154-.452-.371-.812-.65-1.078-.28-.266-.607-.399-.982-.399-.331 0-.636.12-.916.36-.279.239-.5.541-.661.906a2.657 2.657 0 0 0-.243 1.083c0 .418.127.75.38.992.254.244.631.365 1.131.365.382 0 .728-.034 1.037-.102l-.066.433c-.147.091-.478.17-.993.234s-1.195.097-2.04.097h-.607c-.75 0-1.342-.044-1.776-.131-.434-.088-.753-.238-.96-.45-.205-.214-.308-.514-.308-.902 0-.281.033-.597.1-.946l-.111-.057-.982.387a6.115 6.115 0 0 0-.149.696c-.033.22-.05.452-.05.696 0 .692.322 1.22.966 1.585.643.365 1.575.547 2.796.547h.672Zm2.736-3.307c-.25 0-.434-.028-.552-.085-.117-.057-.176-.147-.176-.268 0-.122.031-.244.094-.365a.867.867 0 0 1 .253-.302.553.553 0 0 1 .337-.12c.198 0 .373.106.524.32.15.212.251.467.303.763a5.83 5.83 0 0 1-.783.057Zm-12.033 3.25 1.268-.274.033-7.64-.11-.068-1.28.353v7.56l.089.07Zm-4.07-.08c.588 0 1.072-.072 1.45-.216a1.67 1.67 0 0 0 .877-.759c.206-.36.309-.864.309-1.51v-5.349l-.1-.068-1.279.353v5.132c0 .35-.026.63-.077.844-.191.098-.485.148-.882.148l-.298 1.425Zm-.011 0c.5 0 .75-.323.75-.969a.499.499 0 0 0-.105-.33c-.07-.084-.186-.126-.347-.126-.5 0-.93-.015-1.29-.046-.361-.03-.681-.087-.96-.17a2.7 2.7 0 0 1 .287-.262c.382-.374.72-.678 1.014-.913l.298-1.198-.033-.137a3.874 3.874 0 0 0-1.076-.433 5.163 5.163 0 0 0-1.24-.148c-.405 0-.802.044-1.192.131a4.47 4.47 0 0 0-1.036.36l-.43 1.254.033.114c.485.25.974.63 1.467 1.14a4.34 4.34 0 0 1-.971.24 9.001 9.001 0 0 1-1.17.068l-.297 1.425c.728 0 1.355-.072 1.88-.216a5.367 5.367 0 0 0 1.429-.616c.794.555 1.79.832 2.989.832Zm-2.9-2.246c-.229-.251-.424-.456-.585-.616a3.204 3.204 0 0 0-.486-.4c.36-.098.713-.147 1.06-.147.337 0 .694.057 1.069.17-.353.411-.706.742-1.059.993Zm-3.398 2.246c.257 0 .445-.085.563-.256.117-.171.176-.409.176-.713 0-.152-.035-.266-.105-.342-.07-.076-.182-.114-.336-.114-.28 0-.496-.03-.65-.091a.629.629 0 0 1-.343-.308c-.073-.145-.11-.346-.11-.605V15.05l-.11-.068-1.269.353v5.223c0 .806.18 1.395.54 1.768.36.372.909.558 1.644.558ZM80.364 27l1.224-.57-.11-.627a34.224 34.224 0 0 1-.204-1.232 6.567 6.567 0 0 1-.072-.924c0-.212.015-.384.044-.513.133-.053.285-.095.458-.125.173-.03.344-.046.513-.046.184 0 .445.015.783.046l.281.023c.107.007.223.011.348.011.308 0 .53-.114.667-.342.136-.228.204-.586.204-1.072 0-.441-.086-.878-.26-1.311a2.83 2.83 0 0 0-.716-1.067 1.493 1.493 0 0 0-1.031-.416c-.287 0-.568.091-.844.274a2.166 2.166 0 0 0-.695.787c-.187.342-.3.74-.336 1.197l.099.068.573-.068c.089-.297.208-.52.359-.673a.704.704 0 0 1 .513-.228c.184 0 .364.07.54.211.177.14.324.327.441.559.118.232.184.477.199.735a7.866 7.866 0 0 0-1.081-.09c-.522 0-.965.117-1.329.353a2.25 2.25 0 0 0-.816.9c-.18.365-.27.742-.27 1.13 0 .205.02.448.06.73.04.28.101.653.182 1.117.088.502.147.867.177 1.095l.099.068Zm-5.018-2.452 3.683-10.103L77.695 14 74 24.092l1.346.456ZM46.046 38.728c-.153-.65-1.645-4.631-1.913-4.86-.764.88-.956 6.812-.382 7.693.268-.574.306-3.024.382-3.943.765.842 1.492 3.445 1.224 4.938-.23 1.301-2.027 3.1-3.136 3.483-.038-.498-.115-1.034-.306-1.34-.841.421-.268 2.297-2.639 2.794l.268-1.837c-1.415.727-.153 2.488-3.595 2.832 0-.765.344-1.53.038-2.105-.841.69.038 2.373-3.213 2.45.039-.842.306-1.493.039-2.373-.918-3.1-3.366-.421-3.52 3.062-4.091.23-3.288-4.402-3.824-8.727l-.344-2.64c-.115-.69 0-.46-.344-.843-.612.536-.689 2.718-.689 2.718.689.842.574 1.378.689 2.679.23 2.373.382 6.966 1.797 8.229 1.76 1.57 3.634 0 5.355.038 1.3.039 2.027-.497 2.83-.497 1.645 0 1.186.344 2.83-.383 1.033-.46 1.76-.038 4.82-1.837 3.174-2.029 4.474-5.818 3.633-9.53Zm-15.758 9.76c.153-.765.345-1.071.995-1.34.535.307.65.422.688 1.226-.765.382-.765.459-1.683.114ZM59.279 34.977c-.23 1.263-1.874.88-2.486 1.684 1.683 1.072 4.092-1.377 4.092-3.215-1.912-1.263-4.436-.88-5.086 1.761.076.038 2.333-1.301 3.48-.23Z"/><path d="M40.5 35.016c-.88.268-1.836 1.033-2.792 1.53-1.224.613-1.95.536-2.142 2.106 1.377-.498 2.83-1.493 4.054-2.22.689-.383.765-.498.88-1.416ZM32.086 35.13c-.344.23-.42.307-.536.919-.23.957.153.574-.612 1.033l-.305-.688c-.23-.422.038-.039-.306-.345-.23.46-.574 2.029-1.263 1.225-.19-.498 0-.69.077-1.302-.497.345-.765 1.11-.765 1.838 0 1.684 1.3.65 1.721.574.344-.038.268.153.765-.115.765-.421 1.339-1.875 1.224-3.139ZM20.115 41.178c-.306.268-.46.957-.65 1.57-.306 1.033-.383.994.153 1.683.841.23.956 0 1.568-.23.765 1.417-1.186 2.642-2.295 3.33-7.688 4.976-17.708 2.948-17.785-2.373-.038-1.684 1.645-3.062 2.945-3.636 5.278-2.22 9.332.153 11.015.345-.114-.574.383-.421-1.3-1.034-3.48-1.224-9.868-1.607-12.2 1.302-1.53 1.952-2.219 3.98-.766 6.507 3.48 6.2 16.982 4.018 20.883-2.45 2.333-3.674-.765-5.665-1.568-5.014ZM28.414 42.632c.574.23 2.066-.65 3.022-1.033l.42-1.837c-.688.153-1.644.612-2.37.842-.919.344-1.378 1.186-1.072 2.028ZM71.594 40.642c.842-.153 1.53-.498 2.219-.88.956-.498.88-1.11.88-2.22-.804.23-1.301.65-2.143.957-.994.42-.994.957-.956 2.143ZM18.164 39.532c.23-.574.574-1.11.574-1.914-.306-.153-1.147-.765-1.492-.497-.382.306-.535 1.34-.42 1.76.42.345.688.46 1.338.651ZM32.086 31.992c-.765.306-1.568.842-2.333 1.263-.995.498-1.836.65-1.836 1.99.765-.306 1.606-.765 2.41-1.225.956-.574 1.835-.688 1.759-2.028ZM38.588 39.723c-.153.192-.077-.038-.306.46-.191.497-.115 1.186-1.11 1.033l-.114-1.072c-.038-.306-.038-.23-.153-.344-.65.689-.612 2.067-.153 2.832 1.224.077.88-.23 1.3-.382.612-.268.421.191 1.224-.077 1.3-.421.995-2.335.842-3.368-.153.038-.498-.153-.574 1.186-.038.728.153 1.11-.689.842-.076-.306 0-.306-.038-.535.038 0 .306.153-.23-.575ZM139.214 32.183c-.574-.038-.077-.23-1.3.766-1.225.957-3.481 2.067-3.328 3.521.459-.153 3.06-2.182 3.863-2.794.612-.536.88-.612.765-1.493ZM75.036 32.566c-.688.23-1.568 1.11-2.294 1.646-.842.574-1.836.842-1.798 2.335.841-.192 3.442-2.259 4.016-2.756l.076-1.225ZM93.662 36.355c-.306-.23-.42-.268-.765-.306-.153-.038-.267-.038-.306-.038h.039c.688.23-.345-.039-.039 0a2.135 2.135 0 0 0-.306-.192c-.42 1.034-1.07 1.99-1.376 3.177-1.11 4.287 6.387.115 2.753-2.64Zm-1.53.69c.727.344 1.416.765 1.683 1.568-.65.69-1.07 1.149-2.294.69-.192-.766.382-1.455.611-2.259ZM132.023 30.04c-.573-.038-.076-.23-1.3.765-1.224.957-3.48 2.067-3.327 3.522.458-.153 3.06-2.182 3.862-2.794.612-.46.88-.575.765-1.493ZM111.944 44.355c.42-.842.688-2.105.497-3.024-.306.153-.267-.23-.497.842-.115.498-.23.766-.459 1.033-.497.575-1.262.843-2.371.843-.23-.307-.612-.728-.803-.957-1.568 1.875 1.109 2.909.765 4.095-.306 1.072-2.027 2.832-3.366 2.832-2.754 0-1.606-2.832-2.6-4.095-1.225-.153-2.946 1.531-3.137 4.019.727-.345.497-.46 1.033-.995a7.103 7.103 0 0 1 1.032-.842c1.148-.69.765.918 1.11 1.952.305 1.033.688 1.722 1.759 1.875 4.016.65 5.01-5.397 5.201-5.78.42-.65 1.11-.42 1.836-1.798ZM122.92 44.967l-.038-.842c-1.185-1.301-1.53-.421-2.6-1.301-.115-.957.344-1.914.841-2.488.689-.766 1.11-.69 2.218-.766.306-.65.498-.995.574-1.76-3.557-.919-5.048 5.282-4.628 6.468.421 1.302 1.76.69 2.563 1.416-.88 2.756-5.622 2.833-5.66-.727 0-1.99 2.409-6.507 1.873-7.464-.573.422-.497.996-.841 1.8-.268.688-.574 1.11-.88 1.798-.497 1.225-.994 2.833-.994 4.364.038 7.31 7.764 3.942 7.573-.498ZM108.693 36.585c.842-.498 1.989-.69 3.022-.536-.306.766-1.071 1.187-1.951 1.608-.688.344-.42.076-.65.612 1.836.421 3.94-2.029 4.016-3.827-2.066-1.034-4.284 0-4.437 2.143Z"/><path d="m115.998 51.091-.497 1.722 3.174-.306c.23-.536.574-1.033.689-1.76-1.033-.115-2.295.23-3.366.344ZM101.465 45.35c.42-.306.038-1.225.497-2.45.803-2.028 3.671-2.45 3.748-5.32-.612.191-.42.23-.842.689-.267.306-.497.46-.803.689-.573.46-1.07 1.186-1.874 1.378.077-1.493.421-3.254-1.3-3.215-2.945.038-4.972 4.019-3.825 4.784.803.574 2.754.65 3.825.536-.42 1.57-4.245 5.435-5.814 5.818.039-1.11.306-1.225.039-2.526-.192.114-.268.153-.268.114 0 .039-.038.077-.115.154-.038.076-.153.459-.153.497-.038.306-.038.727-.153 1.034-.23.65-.88.842-1.76.727-1.567-.957-.879-2.297-1.682-3.483-.497.191-.153-.268-.765 1.225-.23.535-.344.918-.612 1.377-1.185 1.99-2.371 2.297-4.742 3.292-1.95.766-1.3.268-2.792 1.187.726.535 4.436-.23 5.392-.575 1.683-.574 2.18-1.952 3.022-3.636.765.957.497 2.527 2.142 2.641.497.039 1.377-.344 2.103-.459 2.983-.498 4.82-3.866 6.387-6.01l.345 1.532Zm-1.836-4.976c-1.377-.23-1.033-.115-1.377-.497.688-.536 1.76-.92 2.907-.651.19.497.306.574.19 1.301-.764.038-1.032 0-1.72-.153ZM111.562 50.287c-.153.153-.153.039-.268.307-.038.114-.153.382-.191.497-.115.383-.153.536-.153.919l1.109.497c.42-.42.688-1.071.803-1.799-.344-.268-.88-.497-1.3-.42ZM139.673 42.441c.19-1.837.612-3.292-1.224-3.292-.727 0-1.683.268-2.219.613-.841.574-2.141 2.22-1.988 3.712.65.69 2.027 1.072 3.212 1.034-.344.65-1.72 1.301-2.83 1.11-1.147-.192-1.606-1.072-1.874-2.297-.306-1.492-.765-6.009-1.186-7.004-1.759 1.531 1.683 6.43-1.491 7.693-.46-.23-.038.039-.46-.268-2.37-1.837-2.638 1.876-2.562 2.641 1.033.46 1.033.23 2.18.115-.42 1.493-2.333 2.947-3.824 3.636-1.568.766-2.563 1.034-4.207 1.455-.689.191-1.033.153-1.3.765 2.638.268 6.386-.191 8.222-1.99 1.95-1.876 1.683-3.636 2.716-4.976.19-.23.344-.497.497-.842.23-.574.038-.46.459-.957.688 6.277 4.59 4.172 6.157 2.22.574-.765.498-.65 1.071-.88l.077 2.028c.459-.612.382-1.645.42-2.45.192-.42 1.569-1.415 1.951-1.683.956-.651 1.3-1.11 1.53-2.412-.956.153-2.142 1.34-3.327 2.029Zm-3.902-.65c.65-.728 1.913-.804 2.984-.575l.23 1.302c-1.11.076-2.525-.077-3.214-.728ZM65.82 44.66c.305-3.559-2.716-4.477-4.093-2.142-.803 1.3-1.377 4.286-.192 4.937.574.344.957.498 1.377.919-.459.765-4.016 2.564-5.163 2.947-.88.268-1.491.268-1.95.88 1.95.191 5.698-.689 6.999-1.684 1.53-1.187 2.792-3.024 3.021-5.856Zm-2.946 1.417c-.42-.268-.994-.536-1.377-.919.191-.765.612-1.263 1.224-1.607 1.798-1.033 3.748 2.105 1.11 3.942-.46-.689-.23-.957-.957-1.416ZM51.515 40.26c-.153-1.493-1.11-2.948-1.683-4.173-.306-.765-.153-.957-.841-1.11-.689 1.034-.497 9.11.153 9.952.765-1.11.23-4.593.306-6.162.306.23.114-.077.382.382.689 1.11 1.3 3.024.956 4.287-1.262 4.172-5.163 6.2-9.14 7.081-2.028.46-2.18.153-2.372 1.033 2.065.23 7.267-.382 9.409-2.181 2.065-1.723 3.136-5.971 2.83-9.11ZM65.322 50.976c-.88.574-1.606.957-1.683 2.22.727-.153.574-.306 1.186-.727 1.032-.842 3.098-1.799 2.524-3.1-.765.459-1.3 1.071-2.027 1.607ZM59.967 39.8c-.23-1.378-1.759.574-2.486 3.215-.65 2.45-1.568 4.363-3.404 5.78-1.032.765-.726.535-2.027 1.148-.88.42-3.824 1.378-4.283 1.875.65.613 4.092-.23 5.125-.497 5.354-1.57 4.78-7.732 6.31-9.569.268-.268.957-.765.765-1.952ZM94.848 45.847c0-.038 0 0 0 0ZM85.44 37.389c-.345-.613-.689-1.034-1.033-1.646-.421-.766-.306-1.301-1.11-1.646-.229 1.608-.152 2.105-.152 3.713 0 1.34-.153 6.966.956 7.272.306-1.11-.306-5.129-.23-7.31.956.65 2.027 3.444 1.836 4.899-.497 3.483-3.825 5.817-6.999 6.698-.918.23-1.606.536-2.524.804-.765.23-2.18.382-2.6.842.19.23-.269.114.343.23.956.229 6.923-.46 8.95-1.761 3.595-2.412 4.78-8.306 2.562-12.095ZM93.854 53.54l1.644.46c.344-.574.689-1.11.765-1.875l-1.683-.498c-.42.574-.688 1.033-.726 1.914Z"/><path d="M78.861 34.94c-.306-1.034-.268-1.494-.841-1.8-.689.727-1.186 6.966-.957 8.306.498-.345.765-3.33.957-4.478.497.574 2.639 5.97.841 7.502-.42.382-1.377 1.071-2.104 1.148.192-1.608.153-1.952-.84-2.947-2.449.114-2.296 3.904-2.678 4.363-.956.574-2.333.421-3.175-.23-1.759-1.301-.88-7.693-1.759-9.76-.23-.497-.115-.23-.268-.42-.612.497-.765 1.836-.765 2.832l.65.267c.383 2.565.077 7.273 1.454 8.804 1.683 1.913 5.43.115 7.611-.957 6.043-2.986 2.83-9.224 1.874-12.63Zm-4.628 11.175c.115-.803.497-1.301 1.377-1.378l.306.88c-.574.575-.841.843-1.683.498Z"/></g></g></svg>