<svg xmlns="http://www.w3.org/2000/svg" width="213" height="40"><path fill="#392EAF" fill-rule="evenodd" d="M140.093 6.081c-.008.038-.033.058-.073.05a1.092 1.092 0 0 1-.598-.319c-.048-.048-.051-.174-.008-.233a.557.557 0 0 1 .368-.23c.066-.01.129.02.173.077a.836.836 0 0 1 .16.558l-.022.097zm.408-.365c0-.215.007-.43-.002-.645a.715.715 0 0 0-.206-.462c-.115-.124-.331-.183-.474-.119a3.408 3.408 0 0 0-.402.207.873.873 0 0 0-.389.498 4.184 4.184 0 0 0-.145.628c-.042.315.04.603.295.811.148.122.314.225.48.324.09.055.198.081.296.124.138.06.164.181.069.315a3.71 3.71 0 0 1-.696.76c-.539.427-1.07.865-1.615 1.286-.664.513-1.33 1.024-2.04 1.473-.459.29-.819.698-1.245 1.025-.083.064-.136.165-.2.251a.092.092 0 0 0-.013.063.077.077 0 0 0 .03.047c.015.011.038.022.055.02.155-.023.28-.11.396-.204.504-.406 1.036-.77 1.594-1.097.018-.011.034-.026.052-.037.433-.282.857-.578 1.3-.84.448-.267.821-.626 1.234-.935a5.063 5.063 0 0 0 1.36-1.54c.235-.41.234-.382.64-.192.058.027.105.076.16.11a.132.132 0 0 0 .17-.038c.256-.38.154-.602-.151-.822-.018-.013-.035-.026-.055-.035-.587-.275-.487-.343-.473-.846v-.13h-.025zm14.008 12.186c-.42.074-.838.161-1.247-.05-.346-.177-.52-.351-.38-.777.092-.277.153-.565.236-.846.02-.07.072-.13.123-.219.711.396 1.36.84 1.88 1.49a.915.915 0 0 1-.612.402zm-1.154-3.588a2.02 2.02 0 0 1-.109.44c-.071.194-.163.381-.248.571a7.056 7.056 0 0 0-.599 2.537c-.039.784.755 1.35 1.429 1.293.217-.019.43-.077.646-.109.264-.039.472-.186.643-.367.67-.71.667-1.687.154-2.371-.366-.49-.844-.85-1.357-1.165-.173-.106-.256-.218-.236-.417.017-.163.02-.327.03-.491.008-.171.034-.347-.133-.496-.13.18-.193.367-.22.575zm-18.421 18.622c-.161.06-.317.135-.48.19-.57.19-1.143.37-1.713.561-.477.16-.945.35-1.427.494-1.248.37-2.493.748-3.673 1.308l-1.383.66c-.028.366-.181.708-.043 1.084.361-.175.696-.333 1.027-.497 1.012-.503 2.072-.878 3.149-1.213.647-.202 1.289-.422 1.93-.643.843-.29 1.684-.585 2.523-.884.065-.024.15-.081.165-.138.077-.315.134-.635.208-1-.127.034-.207.05-.283.078zM61.62 8.546c-.037.234-.095.466-.105.701-.015.335-.19.55-.458.707-.226.131-.38.098-.54-.115-.227-.301-.33-.632-.238-1.014.098-.403.186-.81.27-1.216.023-.115.016-.237.023-.356l-.092-.015c-.062.18-.131.358-.183.541-.19.664-.338 1.337-.36 2.03-.014.501.189.91.557 1.245.11.1.211.106.356.054.29-.106.473-.306.59-.575.263-.594.306-1.225.304-1.863 0-.04-.024-.08-.036-.119l-.088-.005zM97.5 7.166c.232.203.524.264.799.366.326.122.647.249.873.542.059.077.213.166.273.138.197-.088.227.065.3.159.068.086.135.174.187.27.297.547.59 1.097.884 1.647.11.209.224.414.49.5.016-.075.03-.126.04-.18.135-.826.12-1.658.086-2.49a28.758 28.758 0 0 1-.026-1.61 1.81 1.81 0 0 1 .125-.605c.085-.224.443-.357.6-.232.336.27.646.566.68 1.039.004.061.013.122.027.24.194-.28.225-.551.28-.814.108-.515-.042-.963-.407-1.32-.39-.382-.35-.499-1.004-.149-.25.134-.31.362-.367.59a6.587 6.587 0 0 0-.184 1.758c.016.732.044 1.463.063 2.195.003.078-.015.155-.023.233a1.204 1.204 0 0 1-.247-.375c-.333-.754-.715-1.48-1.253-2.11-.375-.441-.775-.86-1.142-1.308-.217-.265-.455-.465-.848-.515-.094.128-.257.26-.3.425a4.885 4.885 0 0 0-.154 1.55c.106.022.2.013.248.056zm16.82-1.227c-.036.233-.094.466-.104.7-.015.335-.19.55-.458.707-.226.131-.38.098-.54-.114-.227-.302-.33-.633-.238-1.015.098-.403.186-.809.27-1.216.023-.115.016-.237.023-.356l-.092-.015c-.062.18-.131.359-.183.542-.19.664-.338 1.336-.36 2.03-.014.5.189.91.557 1.244.11.1.211.107.356.054.29-.106.473-.306.59-.575.263-.594.306-1.225.304-1.863 0-.04-.024-.079-.036-.118l-.088-.005zm13.28-1.038c-.04.095-.09.187-.117.285-.205.727-.408 1.455-.605 2.183-.245.908-.006 1.735.446 2.516.224.386.7.357.925-.036.054-.095.097-.197.155-.29.317-.506.437-1.069.476-1.654.004-.053-.015-.107-.025-.168-.04.019-.054.02-.057.028-.018.038-.043.077-.048.118-.044.35-.239.632-.42.917-.19.3-.569.326-.732.04-.334-.59-.6-1.201-.31-1.898.013-.03.02-.063.028-.095.13-.52.266-1.038.384-1.56.026-.117-.009-.247-.015-.37L127.6 4.9zm46.978 19.308c-.04.095-.09.187-.117.285-.205.727-.408 1.454-.605 2.183-.245.907-.006 1.735.447 2.516.223.386.7.357.924-.036.054-.096.097-.197.155-.29.317-.506.437-1.07.476-1.655.004-.052-.015-.106-.024-.168-.04.02-.055.021-.058.028-.018.039-.042.077-.048.118-.044.35-.239.633-.42.918-.19.3-.569.326-.731.04-.335-.59-.6-1.202-.31-1.898.012-.03.02-.063.027-.095.13-.52.266-1.039.384-1.561.026-.117-.009-.247-.015-.37l-.085-.015zm9.967 2.418c-.158.068-.31.151-.469.214-.56.22-1.123.43-1.682.65-.468.185-.925.4-1.399.567-1.228.435-2.451.876-3.6 1.497-.451.243-.9.488-1.347.73-.009.368-.144.718.013 1.086.352-.194.677-.369 1-.55.984-.555 2.023-.985 3.082-1.375.636-.235 1.265-.488 1.894-.742.826-.333 1.65-.672 2.474-1.014.063-.027.146-.09.157-.147.06-.318.1-.64.155-1.01-.124.042-.204.061-.278.094zm-64.52-13.952c.23.203.523.264.798.366.326.122.647.25.873.543.058.076.213.165.274.137.195-.088.226.065.3.159.067.086.134.174.186.27.297.547.59 1.097.883 1.647.112.209.225.415.49.5.017-.075.031-.126.04-.18.136-.826.121-1.658.087-2.49a28.634 28.634 0 0 1-.026-1.61c.003-.204.052-.414.125-.605.085-.224.443-.357.6-.232.336.27.646.566.68 1.039.004.061.013.122.027.241.194-.28.225-.552.28-.815.108-.515-.042-.963-.407-1.32-.39-.382-.35-.499-1.004-.149-.25.134-.31.362-.368.59a6.595 6.595 0 0 0-.183 1.758c.016.732.044 1.464.063 2.195.002.078-.015.155-.023.233a1.205 1.205 0 0 1-.247-.375c-.333-.754-.715-1.48-1.253-2.11-.375-.44-.775-.86-1.141-1.308-.218-.265-.456-.465-.849-.515-.094.128-.257.26-.3.425a4.881 4.881 0 0 0-.154 1.55c.106.022.2.013.248.056zm2.69 5.927c.156-.332.37-.609.626-.849.165-.154.34-.146.536-.013.206.14.304.353.413.558l-1.575.304zm.788 10.017c.057-.299.11-.602.123-.905.022-.513.072-1.037 0-1.54a28.492 28.492 0 0 0-.514-2.573c-.188-.786-.432-1.56-.654-2.338a3.084 3.084 0 0 1-.097-1.073c.02-.294.07-.362.355-.431.297-.073.598-.135.9-.188a1.9 1.9 0 0 1 .484-.033c.283.024.565.07.845.118.276.046.382-.009.47-.272.125-.377.066-.745-.121-1.077a29.108 29.108 0 0 0-.892-1.457 1.028 1.028 0 0 0-.306-.29c-.223-.145-.454-.152-.667.034-.367.32-.68.684-.805 1.167a3.976 3.976 0 0 0-.112.778.402.402 0 0 1-.117.278c-.259.288-.487.596-.481 1.01.003.25.016.5.022.749.02.87.19 1.712.428 2.548.266.937.505 1.882.73 2.83.19.804.214 1.627.174 2.45-.01.217-.043.432-.072.713.226-.228.26-.26.307-.498zm78.525-10.608c.231.204.523.264.798.367.326.121.647.248.873.542.059.076.213.165.274.138.196-.089.226.064.3.158.067.086.135.174.187.27.297.547.59 1.097.883 1.647.111.209.224.415.49.5.016-.074.03-.126.04-.179.135-.827.12-1.658.086-2.492a28.89 28.89 0 0 1-.025-1.61c.003-.202.052-.413.124-.603.086-.225.443-.358.6-.233.337.27.646.567.68 1.04.004.06.014.121.027.24.195-.28.225-.552.28-.814.108-.516-.042-.964-.407-1.321-.39-.382-.35-.498-1.004-.148-.25.133-.31.362-.367.59a6.587 6.587 0 0 0-.184 1.757c.016.732.044 1.464.064 2.196.002.077-.015.155-.024.232a1.203 1.203 0 0 1-.246-.375c-.334-.753-.716-1.48-1.253-2.11-.375-.44-.776-.86-1.142-1.308-.217-.264-.455-.465-.848-.515-.094.128-.258.26-.3.425a4.885 4.885 0 0 0-.154 1.55c.105.022.199.013.248.056zm-8.701-8.883c.231.203.523.264.798.366.326.122.647.25.873.542.059.077.213.166.274.138.196-.088.226.065.3.159.067.086.134.174.186.27.297.547.59 1.097.884 1.647.111.209.224.415.49.5.016-.075.03-.126.04-.18.135-.826.12-1.658.086-2.49a28.889 28.889 0 0 1-.026-1.61c.004-.203.052-.415.125-.605.085-.224.443-.357.6-.232.337.27.646.566.68 1.04.004.06.013.12.027.24.194-.28.225-.552.28-.815.108-.515-.042-.963-.407-1.32-.39-.382-.35-.499-1.004-.149-.25.134-.31.362-.367.59a6.582 6.582 0 0 0-.184 1.758c.016.732.044 1.464.064 2.196.002.077-.016.154-.024.232a1.208 1.208 0 0 1-.247-.375c-.333-.754-.715-1.48-1.253-2.11-.375-.44-.775-.86-1.141-1.308-.218-.264-.456-.465-.848-.515-.094.128-.258.26-.3.425a4.88 4.88 0 0 0-.155 1.55c.106.022.2.013.249.056zm8.19-3.26c-.04.096-.09.188-.117.286-.204.727-.408 1.454-.605 2.183-.245.907-.005 1.735.447 2.516.224.386.7.357.924-.036.054-.095.098-.197.156-.29.317-.506.436-1.069.476-1.655.003-.052-.015-.106-.025-.167-.04.018-.055.02-.058.027-.018.039-.042.077-.047.118-.045.35-.24.633-.42.918-.191.3-.57.326-.732.04-.335-.59-.6-1.202-.31-1.898.012-.03.02-.063.028-.095.13-.52.265-1.039.383-1.561.027-.116-.008-.246-.015-.37l-.085-.015zM97.596 20.519c-.036.234-.094.467-.104.702-.015.334-.19.55-.458.706-.226.132-.38.098-.54-.114-.227-.302-.33-.633-.238-1.014.098-.404.186-.81.27-1.216.023-.116.016-.238.023-.356l-.092-.015c-.062.18-.131.358-.184.54-.189.665-.337 1.337-.358 2.03-.016.502.188.91.556 1.245.11.1.211.107.356.054.29-.106.472-.306.59-.574.262-.594.306-1.226.304-1.864 0-.04-.024-.079-.036-.118l-.089-.005zm19.366-2.592c-.048.309-.125.616-.138.926-.02.444-.25.728-.606.936-.299.173-.502.13-.714-.152-.3-.399-.437-.836-.314-1.341.13-.534.245-1.071.356-1.61.031-.152.022-.313.031-.47l-.122-.02c-.082.239-.174.474-.243.716-.25.879-.447 1.768-.474 2.685-.02.663.249 1.204.735 1.646.147.133.28.142.472.072.383-.14.625-.405.781-.76.346-.786.404-1.621.401-2.465 0-.052-.031-.104-.048-.157l-.117-.006zm41.097 7.585a9.36 9.36 0 0 0-.78-1.212c-.72-.944-1.61-1.697-2.575-2.371-.263-.184-.549-.057-.602.263a7.838 7.838 0 0 0-.1.88c-.023.44.121.633.533.787.328.123.656.246.976.386.119.051.216.15.33.233l.158-.306c.27.29.52.55.76.817.532.589.944 1.261 1.344 1.942.056.094.143.17.24.281.06-.102.108-.152.118-.209.03-.172.064-.347.063-.52-.007-.757-.03-1.513-.038-2.27-.007-.591.002-1.183-.003-1.774-.003-.26.11-.465.27-.652.103-.121.231-.138.348-.04.124.106.24.225.337.356.188.254.36.52.555.806.064-.199.114-.377.179-.55.128-.338.063-.645-.138-.933-.12-.17-.238-.342-.368-.504a1.617 1.617 0 0 0-.278-.276c-.152-.115-.39-.118-.512.022-.207.236-.428.465-.491.8-.163.867-.172 1.74-.144 2.616.017.545.003 1.092.003 1.714-.084-.129-.14-.204-.185-.286zM147.357 14.57c-.037.233-.095.466-.105.7-.015.335-.19.55-.458.707-.226.132-.38.098-.54-.114-.227-.302-.33-.633-.238-1.014.098-.404.186-.81.27-1.216.023-.116.016-.238.023-.357l-.092-.014c-.062.18-.131.358-.183.54-.19.665-.338 1.337-.36 2.03-.014.501.189.91.557 1.245.11.1.211.107.356.054.29-.106.473-.306.59-.574.263-.594.306-1.226.304-1.864 0-.04-.024-.079-.036-.118l-.088-.005zm-78.27 3.61c-.04.095-.09.187-.118.285-.205.727-.408 1.454-.605 2.183-.245.907-.006 1.735.447 2.515.223.386.7.358.924-.035.054-.096.097-.197.155-.29.317-.506.437-1.07.477-1.655.003-.052-.016-.106-.025-.168-.04.02-.055.021-.058.028-.018.039-.042.077-.047.118-.045.35-.24.633-.42.918-.192.3-.57.326-.732.04-.335-.59-.6-1.202-.31-1.899.012-.03.02-.062.027-.094.13-.52.266-1.039.384-1.561.026-.117-.008-.247-.015-.37l-.085-.016zm-2.112-5.526c-.158.068-.31.151-.47.214-.559.22-1.122.43-1.681.65-.468.185-.925.4-1.4.567-1.227.435-2.45.876-3.6 1.497l-1.347.73c-.008.368-.144.718.013 1.086.352-.194.678-.369 1-.55.985-.555 2.024-.985 3.082-1.375.636-.235 1.265-.488 1.894-.742.827-.333 1.651-.672 2.474-1.014.064-.027.147-.089.157-.147.06-.318.101-.64.156-1.01-.124.042-.204.061-.278.094zm8.93.848c.031-.112.068-.222.091-.335a8.2 8.2 0 0 0 .167-1.894c-.032-1.118-.29-2.165-.914-3.11-.55-.83-1.163-1.61-1.836-2.343-.011-.013-.04-.01-.106-.023-.051.266-.093.533-.156.795-.043.18.007.307.124.445.425.5.861.992 1.247 1.521.32.441.621.908.849 1.402.37.803.522 1.669.517 2.556-.002.325-.031.65-.048.976l.066.01zm10.449 5.15c-.04.095-.09.187-.118.286-.204.727-.407 1.454-.604 2.183-.246.907-.006 1.734.446 2.515.224.386.7.358.924-.036.055-.095.098-.196.156-.29.317-.506.437-1.069.476-1.654.004-.053-.015-.107-.025-.168-.04.019-.054.02-.058.028-.017.038-.042.077-.047.118-.044.35-.239.632-.42.917-.19.3-.569.326-.732.04-.334-.59-.6-1.201-.31-1.898.013-.03.02-.063.028-.094.13-.52.265-1.039.384-1.562.026-.116-.009-.246-.016-.37l-.084-.015zm17.704-8.097c-.04.095-.09.187-.117.285-.204.727-.408 1.454-.605 2.183-.245.907-.005 1.735.447 2.516.224.386.7.357.924-.036.054-.095.098-.197.156-.29.317-.506.436-1.069.476-1.655.003-.052-.015-.106-.025-.167-.04.018-.055.02-.058.027-.018.039-.042.078-.047.118-.045.35-.24.633-.42.918-.191.3-.57.326-.732.04-.335-.59-.6-1.202-.31-1.898.012-.03.02-.063.028-.095.13-.52.265-1.038.383-1.561.027-.116-.008-.246-.015-.37l-.085-.015zm25.592 3.202c-.04.095-.09.187-.117.286-.205.727-.408 1.454-.605 2.183-.245.907-.005 1.735.447 2.515.224.386.7.358.924-.036.054-.095.098-.196.156-.289.317-.507.436-1.07.476-1.655.004-.052-.015-.106-.025-.168-.04.019-.055.02-.058.028-.018.038-.042.077-.047.118-.045.35-.24.633-.42.917-.191.3-.57.326-.732.04-.335-.59-.6-1.201-.31-1.898.012-.03.02-.062.028-.094.13-.52.265-1.039.383-1.562.027-.116-.008-.246-.015-.37l-.085-.015zM112.727 31.89c-.04.095-.09.187-.118.286-.204.727-.408 1.454-.605 2.183-.245.907-.005 1.735.447 2.515.224.386.7.358.924-.036.054-.095.098-.196.156-.289.317-.507.436-1.07.476-1.655.004-.053-.015-.107-.025-.168-.04.019-.054.02-.058.028-.018.038-.042.077-.047.118-.044.35-.24.633-.42.917-.191.3-.57.326-.732.04-.335-.59-.6-1.201-.31-1.898.012-.03.02-.062.028-.094.13-.52.265-1.039.384-1.562.026-.116-.01-.246-.016-.37l-.084-.015zM90.218 7.333c.07-.275.139-.55.195-.827.016-.081.018-.192-.025-.254-.276-.407-.429-.914-.967-1.106-.244-.088-.376-.113-.547.094-.252.303-.495.62-.56 1.024-.068.43-.15.865-.162 1.299-.023.895-.003 1.792-.002 2.688 0 .046-.012.093-.019.139-.116-.128-.172-.268-.248-.396-.702-1.163-1.414-2.32-2.302-3.355a3.987 3.987 0 0 0-1.135-.933c-.269-.144-.519-.055-.59.232-.106.426-.188.858-.158 1.301.023.342.105.422.45.494.525.108 1.057.205 1.451.62.007.008.02.007.025.009l.174-.097c.288.396.575.77.839 1.158.258.38.482.785.741 1.164.262.383.419.836.773 1.199.2-.62.23-1.218.234-1.82.004-.832-.01-1.666.017-2.498.012-.358.101-.71.363-.996.135-.148.271-.204.463-.148a.648.648 0 0 1 .385.287c.173.273.35.544.534.83.026-.039.062-.07.071-.108zm60.86 24.266c.06-.08.11-.17.15-.26.181-.413-.057-.816-.501-.793-.24.012-.498.091-.706.211-.63.364-1.147.868-1.573 1.454-.286.393-.53.816-.567 1.322-.03.405.088.595.47.61.382.017.773.004 1.146-.064.557-.103 1.097-.29 1.653-.394a5.96 5.96 0 0 1 1.34-.116c.262.012.53.17.771.303.146.081.113.244-.033.32-.147.077-.31.13-.473.167-1.613.365-3.181.924-4.847 1.062a3.85 3.85 0 0 1-1.524-.187 1.063 1.063 0 0 1-.598-.509c-.053-.094-.116-.183-.189-.296-.325.848.05 1.612.878 1.743.556.088 1.138.137 1.695.075 1.31-.147 2.578-.521 3.845-.88.417-.119.83-.251 1.249-.365.599-.165.663-.725.822-1.176.123-.35-.181-.637-.437-.838a1.538 1.538 0 0 0-.76-.323c-.358-.034-.732.024-1.091.087-.574.1-1.138.261-1.713.353-.376.06-.764.06-1.145.05-.145-.004-.288-.112-.464-.186.271-.598.72-.953 1.162-1.302.483-.383.772-.355 1.272.076.071-.06.132-.093.169-.144zm38.857 5.526c.174 0 .35.008.523-.001.62-.035 1.784-.428 2.327-.755.583-.351 1.062-.825 1.544-1.293.142-.137.249-.311.367-.472a.305.305 0 0 0 .057-.134c.006-.046-.008-.096-.02-.142-.014-.06-.134-.07-.191-.01-.364.38-.798.67-1.228.968-.332.23-.696.388-1.071.52-.376.13-.765.222-1.148.33-.463.133-.938.115-1.411.105a1.077 1.077 0 0 1-.36-.088c-.224-.089-.382-.369-.354-.606.008-.073.024-.148.048-.218.157-.451.374-.865.704-1.22.204-.218.404-.435.663-.596.19-.118.357-.272.54-.402a.645.645 0 0 0 .25-.36c.029-.096.06-.19.083-.288.017-.073.025-.152-.047-.203-.063-.045-.133-.057-.203-.007-.182.131-.373.252-.543.397-.146.125-.306.145-.485.148a1.242 1.242 0 0 1-.642-.173c-.152-.086-.344-.18-.362-.355-.02-.202.206-.258.348-.348.084-.052.182-.08.277-.113.1-.035.197-.02.282.043.06.045.114.097.169.147.128.116.228.048.28-.091.15-.404.103-.59-.204-.866-.037-.033-.078-.061-.117-.092a.33.33 0 0 0-.351-.05c-.325.14-.59.37-.857.595a.63.63 0 0 0-.133.18c-.224.406-.288.844-.24 1.3.012.126.067.239.193.3.18.087.358.175.535.267.085.044.128.178.087.259-.102.2-.216.394-.31.597-.274.6-.42 1.222-.34 1.888.055.462.358.786.816.837.174.02.349.019.523.027v-.025zM134.702 6.268c-.008.039-.034.059-.075.052a1.122 1.122 0 0 1-.616-.33c-.05-.05-.053-.18-.008-.24a.574.574 0 0 1 .378-.236c.069-.011.133.02.179.078.13.171.17.367.164.576l-.022.1zm.42-.376c0-.222.008-.444-.002-.665a.736.736 0 0 0-.211-.477c-.12-.127-.342-.188-.49-.122a3.532 3.532 0 0 0-.413.213.9.9 0 0 0-.401.514c-.063.212-.12.428-.15.646-.043.326.042.622.304.837.153.125.324.231.494.333.094.056.205.084.306.128.142.06.17.187.07.324a3.82 3.82 0 0 1-.716.783c-.555.44-1.103.892-1.664 1.326-.684.529-1.371 1.055-2.103 1.518-.472.299-.843.718-1.282 1.056-.085.065-.14.17-.207.259a.096.096 0 0 0-.012.064.082.082 0 0 0 .03.048c.016.012.04.024.058.021.159-.023.287-.114.407-.21a13.53 13.53 0 0 1 1.642-1.13c.02-.012.036-.027.054-.039.446-.29.883-.595 1.34-.866.461-.274.846-.644 1.271-.962a5.219 5.219 0 0 0 1.4-1.587c.244-.422.243-.394.661-.198.06.028.108.078.164.113.058.035.14.013.176-.04.264-.39.158-.619-.156-.846-.018-.013-.036-.026-.056-.036-.605-.283-.502-.353-.488-.872v-.133h-.025zm38.87.19c-.008.037-.032.057-.072.05a1.092 1.092 0 0 1-.598-.32c-.048-.048-.052-.174-.008-.233a.557.557 0 0 1 .367-.23c.067-.01.13.02.173.077a.836.836 0 0 1 .16.558l-.022.097zm.408-.366c0-.215.008-.43-.002-.645a.715.715 0 0 0-.205-.462c-.116-.124-.332-.183-.475-.119a3.408 3.408 0 0 0-.401.207.873.873 0 0 0-.39.498 4.184 4.184 0 0 0-.144.628c-.043.315.04.603.294.811.149.122.314.225.48.324.09.055.198.081.297.124.138.06.164.181.068.315a3.71 3.71 0 0 1-.695.76c-.54.427-1.07.865-1.615 1.286-.664.513-1.331 1.024-2.041 1.473-.458.29-.818.698-1.245 1.025-.082.064-.136.165-.2.251a.092.092 0 0 0-.012.063.077.077 0 0 0 .029.047c.015.011.038.022.056.02.154-.023.279-.11.395-.204.504-.406 1.036-.77 1.594-1.097.019-.011.035-.026.053-.037.432-.282.856-.578 1.3-.84.448-.267.82-.626 1.234-.935a5.063 5.063 0 0 0 1.359-1.54c.236-.41.235-.382.64-.192.058.027.105.076.16.11a.132.132 0 0 0 .17-.038c.256-.38.154-.602-.15-.822-.018-.013-.036-.026-.055-.035-.588-.275-.488-.343-.474-.846v-.13h-.025zm4.805 1.413c.231.204.523.264.798.367.326.121.647.248.873.542.059.076.213.165.274.138.196-.089.227.064.3.158.067.086.135.174.187.27.297.547.59 1.097.883 1.647.111.21.224.415.49.5.016-.074.031-.126.04-.179.135-.827.12-1.658.087-2.491a28.762 28.762 0 0 1-.026-1.61c.003-.203.052-.414.124-.604.086-.225.443-.358.6-.233.337.27.646.567.68 1.04.004.06.014.121.027.24.195-.28.226-.552.28-.814.108-.516-.042-.963-.407-1.321-.39-.382-.35-.498-1.004-.148-.25.134-.31.362-.367.59a6.583 6.583 0 0 0-.183 1.757c.015.732.043 1.464.063 2.196.002.077-.015.155-.024.232a1.209 1.209 0 0 1-.246-.374c-.334-.754-.716-1.48-1.253-2.111-.375-.44-.775-.86-1.142-1.307-.217-.265-.455-.466-.848-.516-.094.128-.257.261-.3.425a4.882 4.882 0 0 0-.154 1.55c.105.022.2.013.248.056zm-3.693 5.705c1.005-.062 1.861-.067 2.825.032-.441.576-1.034.775-1.597 1.106l-1.228-1.138zm11.808 1.476c-.777.826-1.715 1.358-2.685 1.878-.226-2.01.14-3.329 1.142-4.068.71.577 1.345 1.207 1.543 2.19zm-13.894 7.756c.84.703 1.804.96 2.873.954 1.24-.008 2.48-.02 3.72.01 1.378.033 2.76.052 4.13.187.905.09 1.819.297 2.597.828.303.207.634.445.81.752.354.615.656 1.27.891 1.94.194.552-.077 1.082-.347 1.555-1.181 2.074-2.945 3.573-4.957 4.769-1.285.763-2.715 1.327-4.197 1.464-3.302.305-6.13-.937-7.573-4.39-.72-1.724-.776-3.484-.603-5.244a8.85 8.85 0 0 1 1.258-3.788c.509.346.985.617 1.398.963zm-2.806-.495c-.56 1.333-.86 2.742-.95 4.165-.083 1.34-.11 2.691.12 4.043.308 1.818.978 3.457 2.127 4.887.557.693 1.255 1.282 2.072 1.63 1.648.702 3.333 1.13 5.179.764a13.004 13.004 0 0 0 4.293-1.7c1.29-.79 2.49-1.748 3.398-2.996.656-.902 1.339-1.784 1.727-2.86.555-1.54.78-3.126.626-4.736-.12-1.259-.674-2.362-1.758-3.117-1.072-.747-2.3-1.04-3.572-1.087-2.873-.106-5.754.135-8.624-.178-.815-.09-1.635-.15-2.453-.522.925-1.327 1.965-2.438 3.363-3.197.593.584 1.188 1.167 1.779 1.754.567.564 1.273.975 2.02 1.088 1.042.158 2.125.15 3.154-.218.323-.115.64-.249.926-.36l.569.497.375-.9c.676-.481 1.353-.916 1.974-1.42.465-.376.896-.834 1.033-1.44.35-1.545.297-3.08-.34-4.55-.237-.546-.555-1.066-1.075-1.42-.475-.324-.792-.31-1.22.09-.126.117-.265.233-.354.376-.616.982-1.032 2.035-1.192 3.194-.134.97-.243 1.93-.003 2.897.018.073-.03.163-.045.234-2.125.964-4.042.917-5.584-.975.045-.066.076-.166.142-.2.76-.394 1.522-.783 2.29-1.163.339-.168.705-.31.827-.707.19-.622.454-1.237.303-1.958-1.145-.613-2.368-1.023-3.66-1.125-2.422-.193-4.763.081-6.88 1.608-.374.834-.621 1.794-.574 2.422.736-.333 1.443-.773 2.279-.485.806.278 1.395.827 1.942 1.471-1.236 1.271-2.425 2.505-3.282 4.044l-1.051-.336-.157.269.782.83c-.203.54-.35.97-.526 1.387zM64.773 17.636c-.087.329-.131.645.052.97.219.39.39.807.594 1.206.13.254.279.497.418.745.049.087.108.184.015.27-.14.127-.291.23-.501.18-.523-.123-.964-.365-1.203-.871-.106-.226-.177-.468-.267-.702-.144-.378-.29-.754-.437-1.131-.08-.207-.163-.413-.245-.619l-.079.015c-.082.387-.19.773-.067 1.176.086.282.178.564.288.838.262.658-.363 1.59-.878 1.753-.212.067-.432.082-.593-.061-.238-.21-.438-.466-.47-.804-.028-.283-.042-.567-.066-.85-.03-.35-.058-.7-.102-1.047-.013-.107-.016-.251-.209-.257-.132.394-.233.785-.162 1.213.053.323.052.655.083.982.06.638.161 1.257.648 1.745.325.327.769.38 1.14.1.392-.295.655-.67.783-1.144.047-.172.099-.346.266-.491.065.119.114.202.157.289.234.482.63.745 1.122.944.44.178 1.06-.202 1.144-.599.168-.793.167-1.556-.262-2.29-.342-.585-.68-1.177-.881-1.833-.021-.067-.073-.125-.15-.254l-.138.527zm27.563.607c-.8.407-1.607.797-2.41 1.199a2.681 2.681 0 0 0-.443.272c-.055.042-.108.166-.084.214.037.073.141.155.216.155.15 0 .305-.037.445-.091.617-.237 1.256-.375 1.905-.489.298-.052.591-.152.799-.406.352-.432.718-.853 1.06-1.293a9.44 9.44 0 0 0 .565-.846c.43-.698.086-.91-.457-1.122-.03-.012-.065-.01-.097-.02-.47-.141-.953-.13-1.435-.117-.635.017-1.27.042-1.903.07a.515.515 0 0 0-.429.26c-.362.56-.736 1.111-1.106 1.666-.024.037-.06.073-.065.113-.01.077-.003.157-.003.281.145-.056.276-.066.338-.137.198-.226.459-.24.72-.252.623-.029 1.246-.07 1.868-.063.332.004.684-.013 1.055.222-.206.149-.36.292-.54.384zm9.151 14.257c-.02.04-.048.079-.06.121-.076.245-.144.492-.222.736a.501.501 0 0 1-.108.196c-.284.29-.666.32-.993.086-.258-.184-.51-.367-.846-.394-.679-.054-1.301.136-1.856.491-1.04.666-2.057 1.368-3.077 2.063a11.113 11.113 0 0 1-3.196 1.508 6.044 6.044 0 0 0-.636.234c-.058.024-.099.09-.197.184.154.013.23.026.305.024.068-.002.14-.037.204-.027.266.043.519-.01.78-.054.424-.072.836-.18 1.237-.33.291-.11.543-.317.864-.36.046-.006.09-.04.132-.065.306-.177.619-.343.914-.536.603-.393 1.21-.784 1.79-1.21.409-.3.82-.58 1.303-.743.699-.237 1.388-.34 2.02.183.014.012.033.02.05.03.356.215.703.19 1-.097.174-.169.32-.367.486-.563.042.018.094.047.15.062.264.073.527.17.796.205.344.044.48-.035.592-.359.132-.38.21-.778.316-1.167.084-.308-.097-.526-.239-.771-.104.214-.147.438-.244.636-.121.248.09.454.051.705-.464.024-.853-.152-1.248-.379v-.4a10.32 10.32 0 0 0-.068-.009zm4.497 3.564c.212-.174.411-.364.631-.526.46-.337.922-.68 1.47-.853.298-.093.573-.211.834-.377.12-.076.244-.146.373-.204.444-.199.61-.812.325-1.245-.464.213-.933.42-1.394.644a.807.807 0 0 1-.567.065c-.556-.123-1.046-.386-1.51-.697-.166-.112-.288-.288-.428-.433.21-.219.382-.325.604-.38.126-.031.255-.054.381-.089.293-.08.32-.07.473.188.096.165.194.329.328.554.225-.403.322-.763.238-1.144-.044-.197-.174-.374-.261-.562-.064-.138-.157-.198-.314-.16-.16.04-.328.047-.484.093-.54.162-.961.481-1.197.998-.13.287-.199.602-.307.9-.083.232-.025.438.108.62.202.275.437.518.743.683.2.107.394.224.62.354-.15.127-.269.238-.399.334-.389.288-.567.678-.576 1.153-.001.07.022.14.043.263.113-.076.195-.121.266-.18zm101.548-25.491c-.977.36-1.924.79-2.878 1.205-.843.365-1.69.72-2.535 1.077-.534.226-1.076.433-1.604.673-.676.308-1.343.636-2.01.963-.934.456-1.868.912-2.794 1.385-.26.133-.497.315-.73.493a.474.474 0 0 0-.157.27c-.045.235-.064.476-.086.716-.005.054.018.111.027.16.39-.246.744-.505 1.13-.705 1.059-.549 2.129-1.076 3.198-1.605.421-.208.848-.405 1.28-.593 1.515-.658 3.035-1.308 4.552-1.964 1.035-.447 2.067-.898 3.101-1.345.068-.029.157-.015.22-.05.127-.073.308-.142.35-.256.11-.291.155-.607.244-.988-.487.212-.89.41-1.308.564zM54.576 12.029c-.154.3-.298.608-.466.9-.186.327-.322.37-.635.165-.603-.396-1.252-.725-1.78-1.228-.03-.027-.075-.038-.151-.077-.329.69-.65 1.365-.988 2.071.167.135.309.27.47.375.423.273.853.534 1.282.798.159.097.32.191.483.28.11.06.238.094.326-.022a3.46 3.46 0 0 0 .27-.434c.254-.46.495-.927.758-1.38.153-.265.232-.27.503-.108.047.028.09.064.137.09.537.306.991.753 1.63.94.293-.535.588-1.083.895-1.625.08-.144.05-.253-.055-.35a2.803 2.803 0 0 0-.334-.261c-.173-.116-.354-.22-.53-.33-.417-.26-.832-.523-1.295-.814l-.52 1.01zm9.058 21.685c-.154.3-.298.607-.466.9-.186.326-.322.37-.635.164-.603-.395-1.252-.724-1.78-1.227-.03-.027-.074-.039-.151-.077l-.988 2.071c.167.134.309.27.47.375.423.273.853.534 1.282.797.159.098.32.192.483.28.11.06.238.094.327-.021a3.46 3.46 0 0 0 .27-.434c.253-.46.494-.927.757-1.38.153-.265.232-.27.503-.108.047.028.09.063.137.09.537.306.991.752 1.63.94.293-.536.588-1.084.895-1.626.081-.143.05-.253-.055-.35a2.803 2.803 0 0 0-.334-.26c-.173-.116-.354-.22-.53-.33-.417-.261-.832-.523-1.295-.815l-.52 1.011zm71.917-13.313c-.155.3-.299.607-.466.9-.186.326-.322.37-.636.164-.602-.395-1.252-.724-1.78-1.227-.03-.027-.074-.038-.15-.077l-.988 2.071c.166.134.308.27.47.375.422.273.853.534 1.281.798.159.097.32.191.483.28.11.06.238.094.327-.022a3.46 3.46 0 0 0 .27-.434c.254-.46.494-.927.757-1.38.153-.265.233-.27.504-.108.046.028.089.064.136.09.537.306.992.753 1.63.94.293-.535.589-1.083.895-1.625.081-.144.05-.253-.055-.35a2.803 2.803 0 0 0-.334-.261c-.173-.116-.354-.22-.53-.33-.416-.26-.832-.523-1.295-.814l-.52 1.01zM121.64 34.612c-.256.556-.504 1.116-.764 1.67-.072.154-.021.255.1.335a24 24 0 0 0 .774.492c.43.259.868.503 1.292.77.28.177.357.179.504-.12.199-.401.38-.812.564-1.22.229-.51.278-.518-.31-.853-.511-.29-1.027-.574-1.537-.868-.168-.096-.324-.214-.504-.336-.062.066-.102.093-.119.13zm79.19-.823c-.255.556-.504 1.115-.764 1.67-.072.154-.02.254.1.334.256.168.513.334.774.492.43.26.868.503 1.292.77.28.177.357.18.505-.119.198-.401.379-.812.563-1.22.229-.51.279-.518-.31-.853-.511-.291-1.027-.575-1.537-.868-.168-.097-.323-.215-.504-.336-.062.066-.102.092-.119.13zm-91.003-2.317c.043-.074.09-.152.111-.234.263-.971.472-1.954.517-2.961.026-.583.008-1.168.003-1.752-.002-.336-.002-.673-.03-1.007-.05-.613-.127-1.224-.18-1.838-.05-.561-.08-1.125-.123-1.687a50.264 50.264 0 0 0-.114-1.316c-.058-.56-.136-1.118-.187-1.678-.052-.58-.077-1.16-.122-1.74-.035-.44-.08-.878-.124-1.316-.06-.595-.129-1.19-.182-1.785-.049-.544-.078-1.09-.123-1.634-.034-.42-.08-.841-.12-1.262-.062-.612-.125-1.225-.182-1.838-.009-.096.013-.196.025-.347.293.203.47.517.828.488.12-.352.145-.362.02-.662a449.45 449.45 0 0 0-1.87-4.385c-.044-.1-.144-.175-.262-.313-.394.743-.569 1.497-.826 2.115.168.457.369.824.432 1.213.153.937.252 1.884.351 2.829.061.578.079 1.16.124 1.74.034.44.08.877.124 1.315.06.595.128 1.19.181 1.785.049.544.072 1.09.125 1.634.092.946.208 1.89.296 2.835.088.947.151 1.896.23 2.844.034.422.075.842.116 1.263.063.63.136 1.26.191 1.89.05.562.077 1.125.121 1.688.064.806.135 1.613.2 2.42.04.491.066.984.117 1.475.01.104.098.2.166.33.11-.07.15-.082.167-.109zm57.464.065c.072-.147.168-.288.21-.443a12.1 12.1 0 0 0 .275-1.184c.1-.608.233-1.22.239-1.83.01-1.129-.053-2.259-.102-3.387-.02-.474-.078-.947-.124-1.42-.058-.596-.128-1.19-.181-1.786-.049-.544-.079-1.09-.123-1.634-.032-.404-.073-.806-.112-1.21-.064-.665-.132-1.33-.193-1.996-.045-.491-.07-.984-.121-1.475-.093-.892-.21-1.782-.294-2.675-.107-1.154-.191-2.31-.29-3.508.085.067.15.116.212.17.146.127.278.275.44.378.067.044.209.026.288-.018.05-.027.068-.155.06-.234-.008-.103-.05-.205-.087-.304-.21-.562-.403-1.132-.638-1.683-.382-.894-.788-1.776-1.191-2.66-.06-.133-.16-.248-.295-.45-.126.239-.221.383-.282.541-.17.446-.313.901-.491 1.343-.09.22-.052.395.042.602.13.285.25.584.306.89.1.553.155 1.114.22 1.673.07.594.134 1.188.19 1.784.05.526.074 1.055.126 1.58.093.946.208 1.89.295 2.835.088.947.152 1.896.229 2.844.033.404.067.808.11 1.21.06.56.14 1.117.19 1.678.053.579.078 1.16.122 1.74.036.474.078.948.124 1.421.059.596.133 1.19.184 1.785.05.58.078 1.16.12 1.74.067.896.145 1.79.202 2.687.022.334.06.657.204.958l.136.038zM65.444 6.127c-.008.495.006.99-.008 1.485-.01.332.007.612.355.806.168.094.269.32.384.496.503.768.982 1.553 1.504 2.307 1.205 1.742 2.583 3.348 3.978 4.94.837.954 1.702 1.885 2.528 2.85a94.154 94.154 0 0 1 2.21 2.698 23.878 23.878 0 0 1 2.404 3.672c.486.916.948 1.856 1.117 2.903.032.198.119.387.187.602.285-.14.3-.384.31-.569.028-.6.07-1.209-.006-1.8-.166-1.305-.607-2.518-1.237-3.685-.813-1.504-1.872-2.82-2.952-4.123a90.063 90.063 0 0 0-3.183-3.61 53.145 53.145 0 0 1-3.284-3.94c-.476-.627-.922-1.277-1.409-1.955 1.22.224 1.22.224 1.47-.12a39.172 39.172 0 0 0-4.276-3.419c-.048.234-.09.347-.092.461zm38.703 21.934c-.501-.018-.56-.136-.417-.593.354-1.129.965-2.115 1.699-3.032.053-.067.13-.116.243-.216.715.792 1.23 1.663 1.468 2.757-.905.7-1.871 1.124-2.993 1.084zm-.602-2.488c-.323.713-.585 1.442-.729 2.206a7.31 7.31 0 0 0-.123 1.419c.008.76.483 1.191 1.241 1.214.5.014.977-.059 1.459-.203 1.237-.373 2.023-1.168 2.392-2.397.15-.501.111-1.014.129-1.525.038-1.063-.273-2.018-.856-2.896-.085-.128-.157-.265-.236-.4.067-.1.108-.178.166-.242.527-.593 1.054-1.188 1.589-1.774.535-.587 1.082-1.164 1.62-1.749.347-.377.688-.758 1.028-1.141.76-.858 1.518-1.72 2.279-2.577.363-.409.738-.808 1.097-1.22.88-1.01 1.76-2.021 2.628-3.042.719-.845 1.446-1.686 2.123-2.566.526-.684 1.019-1.403 1.264-2.252.117-.407.234-.814.336-1.225.038-.153.206-.359-.045-.457-.204-.079-.247.144-.326.272a23.412 23.412 0 0 1-2.497 3.345c-.567.63-1.13 1.261-1.683 1.902-.772.894-1.521 1.808-2.3 2.696-.918 1.049-1.855 2.081-2.788 3.116-.757.84-1.524 1.669-2.28 2.508-.46.512-.896 1.045-1.364 1.549-.55.59-1.121 1.16-1.703 1.76-.125-.116-.247-.215-.353-.328-.929-.993-1.855-1.988-2.782-2.983L99.98 15.52c-1.011-1.085-2.028-2.166-3.03-3.259-.39-.424-.75-.878-1.183-1.39.246 0 .385-.01.522.004.157.016.317.093.466.072.139-.02.264-.134.396-.207-.071-.108-.134-.225-.217-.323-.056-.065-.14-.108-.214-.155-1.089-.69-2.177-1.38-3.27-2.064-.244-.153-.505-.281-.806-.446-.025.183-.057.285-.05.386.036.544.067 1.09.133 1.631.029.24.117.462.363.613.188.115.329.315.474.491.526.64 1.023 1.304 1.57 1.924 1.053 1.19 2.13 2.357 3.203 3.53.847.924 1.696 1.846 2.553 2.761.785.838 1.585 1.663 2.371 2.5.532.565 1.053 1.142 1.61 1.747a11.709 11.709 0 0 0-1.325 2.238zm-29.109.835c.648.167 1.098.812 1.159 1.58-.709.147-2.098-.376-2.772-1.06.462-.426.98-.683 1.613-.52zM57.173 24.34c.17.563-.011.921-.45 1.264-.784.611-1.67.954-2.623 1.186-.548.133-1.037.07-1.516-.201.317-.787 3.312-3.8 4.1-4.122.246.604.303 1.257.489 1.873zm.807 4.09c.14.69.467 1.295.814 1.886.166.28.41.53.664.741.862.717 1.884.71 2.915.562 1.072-.154 1.804-.84 2.447-1.641.239-.297.453-.615.718-.978.059.142.094.217.121.294.128.366.243.736.383 1.097.453 1.167 1.814 1.558 2.928 1.018 1-.486 1.673-1.276 2.107-2.285.06-.139.123-.275.203-.453.18.119.32.193.438.291 1.034.855 2.22 1.349 3.547 1.532.81.111.964.042 1.334-.694.072-.142.145-.284.21-.429.282-.62.45-1.286.422-1.95-.04-.925-.316-1.814-.91-2.555-.855-1.07-1.826-1.13-2.83-.402-.476.345-.83.86-1.232 1.304-.167.184-.22.505-.588.424-.055-.012-.155.085-.204.153-.154.214-.307.43-.435.659-.353.635-.73 1.244-1.298 1.721-.576.485-1.24.598-1.94.465-.761-.145-1.383-1.18-1.242-1.985.021-.121.073-.24.08-.36.016-.303-.159-.438-.432-.317-.207.092-.417.21-.575.366-.324.323-.633.666-.916 1.025-.804 1.024-1.853 1.488-3.142 1.398-.814-.057-1.495-.377-1.965-1.082-.337-.505-.603-1.045-.727-1.635-.227-1.085-.422-2.177-.621-3.267-.133-.724-.248-1.45-.367-2.154.336-.358.682-.67.955-1.035.271-.363.505-.753.63-1.21.273-1.01.29-1.006.08-1.313-.32.405-.614.815-.947 1.19-.335.376-.71.717-1.103 1.109-.064-.133-.094-.192-.121-.252-.268-.576-.532-1.155-.804-1.73-.074-.155-.143-.342-.454-.226-.11.656-.234 1.344-.331 2.037-.02.145.055.307.104.456.09.281.194.558.297.852-.363.312-.712.584-1.028.89a80.373 80.373 0 0 0-1.88 1.873 5.484 5.484 0 0 0-1.228 2.022 22.052 22.052 0 0 0-.474 1.516 1.71 1.71 0 0 0-.06.667c.075.53.711 1.133 1.267 1.193.312.033.635.008.948-.031.693-.087 1.324-.367 1.94-.68.836-.426 1.569-.955 1.85-1.933.154.625.326 1.236.452 1.856zM80.207 5.573c-.188.533-.385 1.062-.56 1.6-.045.14-.046.309-.023.458.153.973.319 1.945.48 2.917.163.99.335 1.978.486 2.97.132.87.25 1.741.353 2.615.093.787.156 1.577.23 2.366.102 1.068.264 2.136.288 3.206.031 1.429.087 2.858-.068 4.29-.132 1.217-.343 2.406-.755 3.558a5.982 5.982 0 0 1-1.339 2.14c-.548.568-1.187 1.053-1.812 1.54-1.238.966-2.494 1.906-3.74 2.86-.293.225-.582.458-.856.706-.052.047-.05.19-.021.272.013.038.151.058.226.045.12-.022.236-.071.349-.123.514-.234 1.023-.48 1.54-.709 1.034-.457 2.072-.903 3.106-1.358 1.054-.463 2.003-1.063 2.551-2.124a13.622 13.622 0 0 0 1.173-3.226c.158-.69.3-1.383.469-2.16.138.553.24 1.018.372 1.474.205.712.395 1.431.817 2.058.398.59.896 1.081 1.616 1.194.48.076.991.054 1.473-.021.802-.125 1.483-.556 2.12-1.036.392-.295.748-.638 1.155-.989.086.3.16.584.25.861.374 1.137 1.465 1.647 2.504 1.527 1.304-.15 2.228-.881 2.913-1.97.197-.314.32-.688.64-.937.047.073.08.116.104.162.542 1.007 1.354 1.649 2.489 1.873.718.143 1.42-.1 1.749-.696.227-.414.396-.865.549-1.315.231-.678.235-1.387.216-2.095-.016-.634-.205-1.215-.516-1.76-.038-.067-.118-.11-.209-.192-.064.101-.127.165-.148.24-.17.593-.342 1.187-.488 1.786-.03.12.022.274.074.396.17.4.349.796.349 1.236-.997.345-2.377-.299-2.879-1.05-.24-.362-.331-.73-.187-1.146.076-.22.142-.437-.013-.66-.375-.06-.603.133-.787.417-.441.68-.852 1.384-1.336 2.034-.671.9-1.552 1.382-2.732 1.249-1.194-.135-1.856-1.108-1.49-2.253.044-.135.055-.344-.02-.44-.134-.17-.323-.033-.48.04a.738.738 0 0 0-.173.12c-.315.282-.631.564-.941.852-.754.698-1.612 1.212-2.625 1.415-.92.183-1.72-.066-2.327-.806-.448-.547-.69-1.205-.787-1.887-.185-1.289-.305-2.587-.45-3.881-.045-.402-.08-.806-.122-1.209-.062-.595-.132-1.189-.187-1.784-.05-.526-.074-1.055-.127-1.58-.091-.911-.2-1.82-.294-2.73-.084-.822-.138-1.649-.239-2.47a59.151 59.151 0 0 0-.402-2.715 186.766 186.766 0 0 0-.757-4.155c-.083-.426-.242-.838-.365-1.255-.28-.01-.337.116-.386.255zM199.96 28.91c-.85.338-1.742.563-2.678.53-.47-.017-.942-.003-1.433-.003l-1.221-4.276c.607-.613 1.35-.837 2.155-.914 1.416-.135 2.72.277 4.003.807 1.485.613 2.99 1.17 4.559 1.533.028.007.054.026.101.05-1.837.765-3.652 1.544-5.486 2.273zm-.935 2.771c.758-.183 1.475-.485 2.176-.821 1.403-.673 2.796-1.366 4.199-2.04 1.068-.512 2.159-.969 3.329-1.2.24-.048.487-.07.732-.089.573-.043.655-.102.836-.625.168-.483.343-.964.51-1.448.02-.06.002-.133.002-.25-.392-.047-.775-.079-1.153-.142-1.41-.237-2.812-.518-4.166-.977-1.32-.449-2.616-.966-3.917-1.467-1.403-.54-2.81-1.012-4.356-.852-.668.07-1.28.243-1.844.591-.595.368-.996.87-1.143 1.58-.122.585-.304 1.16-.473 1.734a3.763 3.763 0 0 0-.047 1.934c.068.3.15.595.225.893-.283-.222-.528-.457-.698-.738a6.996 6.996 0 0 1-.975-2.72 41.567 41.567 0 0 1-.219-2.153c-.077-.948-.145-1.897-.197-2.846-.05-.898-.077-1.798-.107-2.697-.042-1.253-.072-2.506-.119-3.759-.024-.634-.07-1.267-.116-1.9-.03-.421-.062-.843-.121-1.261-.081-.575-.201-1.144-.282-1.719-.214-1.528-.644-2.998-1.195-4.434-.032-.085-.124-.146-.218-.253-.082.124-.163.2-.187.29-.088.34-.122.7-.243 1.028-.226.616-.143 1.203.065 1.797.07.199.11.409.158.615.573 2.458.875 4.956 1.056 7.47.086 1.195.156 2.391.21 3.589.053 1.199.062 2.4.116 3.599.051 1.144.136 2.286.205 3.43.058.96.29 1.884.673 2.761.42.964.96 1.859 1.862 2.454.422.278.891.484 1.409.76.03.259.063.59.115.918.01.072.103.195.135.189.089-.02.196-.078.24-.153.049-.084.033-.204.052-.308.035-.204.074-.407.11-.603 1.159.065 2.268.087 3.36-.177zm-85.279-9.175c.252.237.142.402.092.565-.2.64-.463 1.267-.588 1.92-.31 1.621.004 3.091 1.267 4.25.565.519 1.243.883 1.958 1.143.744.272 1.51.49 2.277.686.423.108.87.174 1.305.171 1.094-.006 2.194.001 3.28-.11 2.52-.26 4.975-.823 7.314-1.818a93.302 93.302 0 0 0 3.425-1.557c.654-.31 1.283-.674 1.926-1.008.233-.121.491-.293.738-.086.216.18.133.46.091.7-.14.821.126 1.483.75 2.02.334.287.755.36 1.141.33.844-.068 1.618-.372 2.218-1.005.377-.396.752-.798 1.083-1.232a2.04 2.04 0 0 1 .735-.586.592.592 0 0 1 .444-.02c.183.078.103.26.07.42-.162.8.073 1.486.704 1.984.28.221.65.386 1.001.445.855.145 1.694.099 2.377-.581.063-.442-.196-.779-.422-1.105a38.612 38.612 0 0 0-2.847-3.614c-.714-.804-1.41-1.626-2.122-2.432a83.848 83.848 0 0 0-4.968-5.154c-.633-.604-.788-1.286-.653-2.063.102-.587.29-1.165.499-1.725.308-.824.887-1.403 1.659-1.85a60.416 60.416 0 0 1 4.737-2.496c1.888-.881 3.8-1.712 5.71-2.549a69.432 69.432 0 0 1 6.733-2.555c.939-.3 1.886-.597 2.891-.594.869.002 1.212.36 1.246 1.212.033.845-.356 1.532-.739 2.23-.52.95-1.227 1.766-1.878 2.622-.816 1.073-1.52 2.208-2.01 3.47-.079.2-.129.444-.414.567-.158-.425-.117-.838-.035-1.24.211-1.044.75-1.935 1.374-2.777.672-.906 1.363-1.799 2.034-2.706.134-.181.237-.395.311-.608.093-.266-.03-.462-.307-.495a1.908 1.908 0 0 0-.578.03c-1.656.318-3.226.913-4.78 1.542-1.816.736-3.633 1.475-5.414 2.292-2.233 1.025-4.436 2.116-6.637 3.21-.9.447-1.763.973-2.64 1.468-.163.092-.315.207-.515.339.308.23.564.44.838.624 1.541 1.03 3.013 2.154 4.453 3.32 1.055.854 2.135 1.679 3.168 2.559 1.114.95 2.193 1.942 3.275 2.93.73.668 1.434 1.366 2.156 2.042.916.857 1.82 1.727 2.763 2.553 1.139.996 2.46 1.645 3.963 1.896 1.09.183 2.185.225 3.25-.106.517-.16 1-.437 1.49-.675.195-.095.254-.284.236-.496-.056-.649-.11-1.298-.169-1.946-.042-.474-.096-.946-.133-1.42-.046-.597-.073-1.197-.122-1.794-.053-.649-.122-1.296-.184-1.944-.01-.106-.013-.212-.022-.318-.068-.807-.14-1.613-.203-2.42-.047-.598-.073-1.197-.122-1.795-.053-.649-.124-1.296-.184-1.944-.043-.474-.088-.948-.122-1.422-.045-.65-.07-1.303-.122-1.953-.049-.614-.127-1.225-.181-1.839-.052-.579-.085-1.16-.132-1.74-.03-.385-.048-.775-.118-1.155-.033-.178-.188-.332-.264-.506-.059-.137-.15-.311-.11-.43.209-.618.45-1.226.69-1.833.028-.07.116-.114.2-.192.075.089.146.145.18.218.323.707.66 1.408.954 2.127.34.833.643 1.682.96 2.525.068.181.144.367-.035.56-.46.001-.643-.436-.966-.648-.029.02-.076.04-.074.056.094.98.199 1.96.287 2.941.053.597.073 1.197.123 1.794.052.613.126 1.225.184 1.838.046.491.086.983.12 1.475.044.633.071 1.268.122 1.9.051.65.126 1.296.184 1.945.045.49.085.983.119 1.475.044.65.07 1.303.122 1.953.05.631.143 1.26.184 1.89.032.494.052.995.007 1.486-.067.733-.101 1.474-.384 2.178-.405 1.005-.989 1.807-2.05 2.218-.65.252-1.294.43-1.991.478-2.249.157-4.268-.416-5.983-1.89-1.245-1.07-2.43-2.21-3.65-3.31-.838-.755-1.69-1.496-2.537-2.245-.31-.274-.618-.552-1-.763.117.209.22.428.354.625.546.8.937 1.677 1.063 2.628.142 1.07.17 2.156-.388 3.153-.456.815-1.147 1.274-2.076 1.364-.311.03-.615.05-.937.019-1.144-.113-1.827-.755-2.217-1.778-.118-.31-.207-.632-.336-1.034-.192.246-.343.431-.486.623-.51.684-1.062 1.331-1.837 1.72-.65.325-1.324.491-2.088.381-.832-.12-1.648-1.16-1.71-1.939-.028-.345-.098-.687-.158-1.094-.417.21-.803.38-1.165.59-1.606.939-3.302 1.682-5.033 2.352a22.835 22.835 0 0 1-3.447 1.027c-.824.178-1.67.258-2.498.418-1.207.233-2.424.202-3.642.206-1.653.005-3.21-.386-4.7-1.09-.611-.288-1.173-.626-1.67-1.096-1.085-1.025-1.502-2.301-1.587-3.749-.075-1.279.188-2.493.59-3.686.13-.382.339-.74.544-1.09.09-.154.264-.258.411-.397zm-81.9 5.023v9.1l-2.835-1.575-2.835 1.574v-9.1h5.67zM23.379 4a.187.187 0 0 1 .195.178.188.188 0 0 1-.111.179 1.135 1.135 0 1 0 1.359 1.724.186.186 0 0 1 .326.164 1.758 1.758 0 0 1-1.429 1.249v.608l.06.02c7.115 2.262 11.43 6.067 10.064 13.005a7.361 7.361 0 0 1 4.806 2.155 7.359 7.359 0 0 1 0 10.43 7.363 7.363 0 0 1-5.215 2.166h-.545v-2.242h.545a5.126 5.126 0 0 0 3.63-1.51 5.123 5.123 0 0 0 1.51-3.63 5.125 5.125 0 0 0-1.51-3.629 5.122 5.122 0 0 0-3.63-1.51H7.382a5.124 5.124 0 0 0-3.63 1.51 5.124 5.124 0 0 0-1.51 3.63c0 1.413.579 2.697 1.51 3.629a5.128 5.128 0 0 0 3.63 1.51h17.75v2.242H7.383a7.363 7.363 0 0 1-5.215-2.167A7.365 7.365 0 0 1 0 28.497c0-2.032.83-3.877 2.167-5.215A7.37 7.37 0 0 1 6.92 21.13l-.055.001C6.088 17.18 8.517 15 12.54 13.696v-.809a1.748 1.748 0 0 1-.92-.485 1.751 1.751 0 0 1-.264-2.147 1.775 1.775 0 0 1 1.043-.79c.122-.034.25-.054.382-.06a.187.187 0 0 1 .194.178.188.188 0 0 1-.112.178 1.128 1.128 0 0 0-.677 1.039 1.131 1.131 0 0 0 1.637 1.015 1.13 1.13 0 0 0 .4-.33.186.186 0 0 1 .326.165 1.764 1.764 0 0 1-1.428 1.248v.795c4.023 1.3 6.456 3.478 5.687 7.421h1.205l.045-.26c.627-4.01-1.58-6.357-5.298-7.817 1.791-2.194 4.715-3.764 8.38-4.926v-.628a1.759 1.759 0 0 1-1.186-2.632c.166-.273.402-.499.683-.649A1.8 1.8 0 0 1 23.38 4zm1.754 26.78v1.733H7.557a.87.87 0 0 1-.866-.867c0-.476.39-.866.866-.866h17.576zm8.127 0c.476 0 .866.39.866.866a.87.87 0 0 1-.866.867h-.371V30.78h.37zm-8.127-3.15v1.733H5.593a.869.869 0 0 1-.866-.866c0-.477.39-.867.866-.867h19.54zm10.09 0c.476 0 .866.39.866.867 0 .476-.39.866-.866.866h-2.334V27.63h2.334zm-1.963-3.149c.476 0 .866.39.866.866 0 .477-.39.867-.866.867H7.557a.869.869 0 0 1-.866-.867c0-.476.39-.866.866-.866H33.26z"/></svg>